<?xml version="1.0" standalone="no"?>
<!DOCTYPE svg PUBLIC "-//W3C//DTD SVG 20010904//EN"
 "http://www.w3.org/TR/2001/REC-SVG-20010904/DTD/svg10.dtd">
<svg version="1.0" xmlns="http://www.w3.org/2000/svg"
 width="400.000000pt" height="400.000000pt" viewBox="0 0 400.000000 400.000000"
 preserveAspectRatio="xMidYMid meet">
<metadata>
Created by potrace 1.13, written by Peter Selinger 2001-2015
</metadata>
<g transform="translate(0.000000,400.000000) scale(0.100000,-0.100000)"
fill="#000000" stroke="none">
<path d="M970 3870 c-18 -18 -20 -33 -20 -150 0 -71 -3 -130 -7 -130 -4 0 -49
41 -100 91 -89 88 -94 91 -115 77 -44 -29 -35 -46 96 -177 l125 -126 2 -180
c0 -103 -3 -181 -9 -183 -12 -4 -281 152 -302 175 -9 10 -22 43 -29 73 -7 30
-22 87 -32 125 -11 39 -24 87 -30 107 -12 45 -40 64 -69 48 -26 -14 -26 -35 7
-162 15 -59 24 -110 20 -114 -3 -4 -23 4 -44 16 -195 116 -211 122 -234 79
-16 -32 4 -51 120 -118 61 -35 111 -65 111 -68 0 -6 -49 -23 -134 -44 -96 -25
-126 -42 -126 -72 0 -44 31 -50 132 -22 51 14 129 35 174 47 l81 21 151 -87
c84 -49 152 -94 152 -102 0 -8 -5 -14 -10 -14 -6 0 -36 -16 -66 -35 -30 -19
-56 -35 -58 -35 -3 0 -39 -21 -82 -46 -89 -52 -87 -52 -244 -8 -198 55 -235
54 -228 -5 3 -28 17 -34 158 -72 47 -12 89 -25 93 -29 5 -4 -35 -34 -90 -65
-146 -85 -162 -104 -123 -140 20 -18 22 -18 68 4 26 13 80 43 120 68 41 24 77
42 80 38 3 -3 -6 -54 -21 -113 -15 -59 -27 -116 -27 -127 0 -46 49 -60 74 -22
9 12 33 92 54 177 l39 155 46 30 c87 57 252 150 265 150 11 0 14 -36 12 -180
l-1 -180 -124 -126 c-69 -69 -125 -133 -125 -142 0 -20 27 -47 47 -47 9 0 58
41 109 92 52 50 94 85 95 77 0 -8 0 -66 -1 -130 -1 -100 2 -119 18 -139 17
-22 23 -23 46 -12 l26 12 0 133 c0 74 3 137 7 140 3 4 48 -33 98 -83 51 -49
99 -90 108 -90 20 0 47 27 47 47 0 9 -58 75 -130 148 l-130 132 0 171 c0 95 4
173 9 177 6 3 27 -4 47 -16 140 -78 264 -152 268 -158 3 -4 23 -79 46 -167 42
-163 59 -197 93 -192 41 6 43 31 13 151 -16 62 -27 119 -25 125 2 6 51 -16
118 -54 100 -58 116 -65 138 -55 38 17 28 59 -22 92 -42 27 -124 74 -162 93
-31 15 -29 33 5 39 72 14 186 47 208 62 27 18 31 47 9 65 -19 16 -63 9 -220
-35 -68 -19 -132 -35 -143 -35 -18 0 -53 18 -197 102 -27 16 -65 36 -82 45
-18 9 -33 22 -33 29 0 10 160 114 176 114 2 0 28 16 58 35 30 19 62 35 71 35
12 0 128 -30 305 -80 57 -16 99 23 68 62 -16 18 -47 30 -160 59 -49 12 -88 27
-88 33 0 6 17 19 38 29 56 26 149 81 172 102 34 30 20 75 -23 75 -11 0 -67
-27 -124 -60 -58 -33 -107 -60 -109 -60 -12 0 1 67 35 180 17 53 14 88 -8 100
-40 21 -63 -4 -86 -93 -55 -212 -68 -254 -83 -268 -9 -9 -42 -30 -72 -46 -92
-50 -184 -104 -197 -115 -7 -6 -20 -8 -28 -4 -13 4 -15 33 -15 177 l0 172 130
132 c72 73 130 139 130 148 0 9 -10 23 -21 31 -31 21 -57 5 -148 -88 -40 -42
-77 -73 -82 -70 -5 3 -9 63 -9 134 0 104 -3 132 -16 144 -20 21 -30 20 -54 -4z"/>
<path d="M2972 3865 c-16 -35 -16 -319 -1 -348 23 -42 57 -49 89 -17 18 18 20
33 20 179 0 193 -5 211 -58 211 -32 0 -41 -5 -50 -25z"/>
<path d="M2333 3705 c-46 -32 -32 -58 104 -196 70 -71 138 -132 151 -136 39
-10 72 12 72 48 0 27 -19 50 -127 160 -73 72 -139 131 -153 134 -15 3 -34 -1
-47 -10z"/>
<path d="M3645 3710 c-11 -4 -75 -64 -142 -133 -129 -131 -143 -156 -105 -190
39 -36 61 -23 199 117 142 142 156 168 111 200 -25 18 -34 19 -63 6z"/>
<path d="M2900 3289 c-53 -24 -124 -90 -150 -139 -60 -117 -39 -257 54 -352
114 -117 314 -119 429 -4 114 113 122 288 19 411 -32 39 -88 78 -133 93 -55
19 -166 14 -219 -9z"/>
<path d="M2152 3047 c-27 -29 -28 -51 -2 -77 18 -18 33 -20 188 -20 188 0 212
7 212 60 0 53 -25 60 -210 60 -161 0 -167 -1 -188 -23z"/>
<path d="M3515 3045 c-14 -13 -25 -29 -25 -35 0 -6 11 -22 25 -35 24 -24 27
-25 185 -25 158 0 161 1 185 25 14 13 25 29 25 35 0 6 -11 22 -25 35 -24 24
-27 25 -185 25 -158 0 -161 -1 -185 -25z"/>
<path d="M2443 2516 c-78 -78 -133 -141 -133 -152 0 -32 29 -64 57 -64 20 0
56 29 153 126 70 69 133 136 140 149 19 36 -9 75 -53 75 -28 0 -49 -17 -164
-134z"/>
<path d="M3397 2632 c-34 -37 -22 -59 110 -193 70 -71 137 -132 150 -135 33
-9 73 20 73 53 0 20 -30 56 -133 159 -139 141 -164 156 -200 116z"/>
<path d="M2985 2516 c-25 -25 -25 -27 -25 -186 0 -159 0 -161 25 -186 19 -18
31 -23 48 -19 43 13 47 30 47 196 0 148 -9 209 -31 209 -4 0 -14 3 -23 6 -9 3
-26 -5 -41 -20z"/>
<path d="M714 1853 c-17 -75 -103 -288 -144 -358 -9 -16 -31 -55 -48 -85 -16
-30 -62 -111 -102 -180 -88 -151 -182 -337 -206 -405 -23 -65 -23 -229 -1
-303 51 -169 184 -305 355 -365 84 -29 235 -29 324 1 170 56 281 163 344 330
l33 87 239 3 c238 2 240 2 266 27 30 28 35 78 11 112 -25 36 -77 43 -307 43
-176 0 -218 3 -218 13 0 13 -28 101 -45 140 -7 16 6 17 184 17 152 0 198 3
221 15 59 30 67 91 19 136 l-31 29 -247 0 -246 0 -48 81 c-26 45 -47 85 -47
90 0 5 104 9 230 9 l231 0 25 25 c36 36 31 99 -9 129 -27 20 -44 21 -309 26
l-281 5 -17 30 c-36 67 -86 185 -116 275 -17 52 -36 96 -42 98 -6 2 -14 -9
-18 -25z"/>
<path d="M2860 1806 c-79 -18 -140 -49 -181 -93 -47 -49 -56 -68 -64 -129 -14
-100 24 -169 131 -244 96 -66 153 -145 169 -233 7 -35 4 -39 -53 -97 -33 -33
-63 -60 -66 -60 -2 0 -17 5 -33 11 -134 52 -323 53 -453 1 -76 -30 -154 -117
-184 -203 -63 -181 70 -469 258 -557 147 -69 326 36 326 192 0 101 33 195 97
274 30 36 40 42 73 42 21 0 42 -4 45 -10 3 -5 23 -10 44 -10 49 0 59 -13 77
-96 28 -135 128 -292 229 -358 155 -101 330 -68 472 88 85 93 150 258 141 357
-13 135 -128 231 -258 216 -25 -3 -80 -22 -124 -43 -71 -34 -86 -37 -166 -38
-123 -1 -141 11 -162 99 -23 100 -27 89 54 170 156 154 217 371 146 522 -75
159 -303 247 -518 199z m192 -863 c30 -27 38 -66 20 -102 -40 -83 -164 -58
-164 32 0 79 87 121 144 70z"/>
</g>
</svg>
