<?xml version="1.0" standalone="no"?>
<!DOCTYPE svg PUBLIC "-//W3C//DTD SVG 20010904//EN"
 "http://www.w3.org/TR/2001/REC-SVG-20010904/DTD/svg10.dtd">
<svg version="1.0" xmlns="http://www.w3.org/2000/svg"
 width="300.000000pt" height="300.000000pt" viewBox="0 0 300.000000 300.000000"
 preserveAspectRatio="xMidYMid meet">
<metadata>
Created by potrace 1.13, written by Peter Selinger 2001-2015
</metadata>
<g transform="translate(0.000000,300.000000) scale(0.100000,-0.100000)"
fill="#000000" stroke="none">
<path d="M1290 2843 c-254 -59 -389 -168 -426 -347 -14 -69 -14 -83 0 -152 16
-76 59 -156 108 -201 33 -29 126 -93 137 -93 5 0 44 -38 88 -84 95 -100 152
-206 160 -298 l6 -58 -49 -48 c-27 -27 -66 -68 -86 -93 -35 -41 -41 -44 -82
-42 -24 1 -55 7 -68 14 -13 7 -61 23 -108 36 -71 19 -111 22 -242 23 -137 0
-171 -3 -255 -25 -54 -14 -102 -30 -107 -35 -6 -6 -17 -10 -27 -10 -24 0 -141
-92 -188 -148 -47 -56 -73 -103 -102 -182 -40 -113 -20 -379 37 -488 7 -15 14
-30 14 -34 0 -16 77 -138 127 -200 63 -79 196 -186 273 -219 45 -20 71 -24
147 -23 51 0 98 5 105 11 7 6 24 14 36 18 40 12 110 64 146 108 59 73 82 138
89 262 12 184 63 314 167 426 53 56 58 59 103 59 26 0 62 -7 78 -16 17 -8 58
-18 92 -22 55 -6 63 -10 79 -39 11 -17 23 -59 29 -94 41 -257 235 -545 439
-652 157 -82 354 -82 510 0 268 141 459 465 448 759 -3 84 -8 108 -33 159 -36
74 -106 145 -182 182 -52 25 -68 28 -163 28 -113 0 -110 1 -313 -100 -77 -39
-326 -43 -398 -7 -44 22 -79 76 -79 121 0 20 -9 54 -20 76 -38 74 -31 89 83
202 112 110 161 177 219 293 124 251 128 455 13 660 -39 70 -151 164 -240 204
-33 15 -68 31 -77 36 -77 42 -368 61 -488 33z m270 -1421 c39 -19 80 -82 80
-125 0 -37 -34 -103 -65 -123 -34 -22 -96 -29 -139 -14 -129 42 -120 241 14
278 39 11 58 8 110 -16z"/>
</g>
</svg>
