<?xml version="1.0" standalone="no"?>
<!DOCTYPE svg PUBLIC "-//W3C//DTD SVG 20010904//EN"
 "http://www.w3.org/TR/2001/REC-SVG-20010904/DTD/svg10.dtd">
<svg version="1.0" xmlns="http://www.w3.org/2000/svg"
 width="300.000000pt" height="300.000000pt" viewBox="0 0 300.000000 300.000000"
 preserveAspectRatio="xMidYMid meet">
<metadata>
Created by potrace 1.13, written by Peter Selinger 2001-2015
</metadata>
<g transform="translate(0.000000,300.000000) scale(0.100000,-0.100000)"
fill="#000000" stroke="none">
<path d="M1450 2950 l-25 -19 -3 -225 c-2 -163 -6 -226 -15 -226 -6 0 -77 65
-157 145 -160 158 -178 168 -225 120 -27 -27 -31 -45 -14 -78 6 -12 101 -112
210 -222 l198 -200 2 -292 c0 -161 -2 -297 -5 -302 -7 -11 -33 -4 -56 14 -8 7
-39 26 -68 41 -29 16 -69 39 -90 51 -20 13 -50 30 -67 38 -29 15 -56 31 -128
75 -17 11 -46 26 -62 34 -44 21 -64 47 -74 97 -5 24 -18 78 -30 119 -11 41
-25 95 -32 120 -6 25 -20 74 -30 109 -11 35 -19 73 -19 83 0 31 -43 98 -67
104 -38 10 -73 -4 -84 -34 -17 -42 -2 -119 62 -332 23 -77 24 -110 5 -110 -8
0 -18 5 -21 10 -4 6 -21 17 -38 25 -18 8 -45 24 -62 35 -16 10 -43 26 -60 35
-16 8 -47 25 -67 38 -129 77 -163 84 -197 41 -28 -36 -26 -65 7 -96 28 -28
304 -191 341 -203 11 -3 21 -13 21 -21 0 -16 -30 -30 -100 -46 -25 -6 -76 -19
-115 -30 -195 -54 -215 -65 -215 -117 0 -20 9 -37 31 -55 36 -30 33 -30 90
-12 24 7 82 23 129 35 131 34 231 61 280 76 113 35 100 39 370 -118 135 -78
246 -149 248 -158 2 -12 -51 -47 -185 -125 -103 -59 -201 -115 -218 -124 -16
-9 -43 -24 -58 -34 -31 -21 -90 -18 -174 8 -27 8 -84 24 -128 36 -44 12 -100
27 -125 34 -25 8 -79 22 -122 31 -76 18 -76 18 -107 -4 -62 -44 -32 -117 58
-141 20 -5 72 -19 116 -30 199 -52 242 -67 229 -80 -5 -4 -32 -21 -61 -37
-159 -87 -305 -177 -318 -196 -23 -33 -18 -63 16 -91 37 -31 58 -28 144 21 33
19 67 38 75 43 8 5 57 34 109 64 100 60 121 66 121 39 0 -18 -25 -116 -61
-233 -30 -100 -35 -164 -15 -195 15 -22 23 -26 59 -23 34 3 44 8 60 36 10 17
25 58 32 90 21 89 42 169 70 267 14 50 29 109 34 133 5 24 19 54 32 68 20 21
169 114 183 114 3 0 24 13 48 29 24 16 70 43 103 61 33 18 80 45 105 60 49 31
76 37 81 18 2 -7 3 -142 1 -300 l-3 -287 -209 -215 c-227 -232 -233 -241 -184
-290 49 -48 62 -40 241 137 96 95 144 136 147 126 3 -8 7 -109 8 -225 3 -192
5 -214 22 -233 26 -29 76 -28 104 2 21 22 22 32 22 233 0 229 6 255 43 214 81
-89 289 -280 305 -280 37 0 72 38 72 77 0 34 -15 51 -210 248 l-210 211 0 293
c0 261 2 292 16 298 9 3 24 1 33 -5 41 -28 379 -223 426 -246 59 -28 73 -58
120 -264 8 -34 17 -67 21 -73 3 -6 13 -38 21 -72 8 -34 20 -85 26 -113 23 -96
71 -138 126 -109 41 21 46 63 20 161 -11 43 -25 97 -30 119 -6 22 -17 59 -25
83 -16 49 -19 102 -4 102 8 0 75 -37 130 -71 8 -5 29 -16 45 -25 17 -8 44 -24
60 -34 17 -11 44 -27 62 -35 17 -8 34 -19 38 -25 3 -5 26 -10 50 -10 37 0 47
5 64 29 26 36 26 49 -2 82 -21 25 -313 200 -356 214 -30 9 -26 34 7 41 15 3
39 10 53 15 15 6 53 16 85 24 204 47 260 70 270 111 9 33 -7 66 -40 83 -27 15
-64 8 -276 -50 -41 -12 -100 -27 -130 -35 -30 -7 -80 -20 -110 -29 -89 -25
-91 -24 -260 75 -118 69 -168 98 -180 104 -8 4 -33 18 -55 31 -22 14 -52 30
-67 36 -41 16 -38 55 5 75 17 8 50 26 72 39 22 13 49 29 60 35 11 6 38 22 60
35 22 13 54 31 70 40 17 8 46 25 65 37 19 11 44 26 55 32 11 6 32 20 48 30 30
20 70 18 157 -9 25 -8 81 -23 125 -35 44 -12 103 -28 130 -36 28 -8 68 -18 90
-23 22 -6 56 -14 76 -19 30 -8 43 -6 67 10 17 11 34 28 37 39 15 47 -43 100
-125 114 -35 6 -101 24 -238 65 -40 12 -72 26 -70 32 2 5 30 24 63 42 33 18
76 43 95 54 19 12 49 28 65 37 17 8 48 26 70 40 22 14 46 28 52 31 21 10 55
73 47 86 -19 35 -50 58 -75 58 -18 0 -97 -40 -209 -105 -100 -58 -185 -103
-190 -100 -4 3 -2 29 5 58 29 119 38 154 51 192 27 85 36 155 24 186 -14 32
-45 45 -84 35 -26 -6 -66 -62 -66 -91 0 -10 -9 -48 -20 -84 -10 -36 -29 -104
-41 -151 -12 -47 -27 -103 -34 -125 -8 -22 -16 -58 -20 -80 -3 -22 -14 -49
-23 -60 -9 -11 -118 -79 -242 -149 -124 -71 -233 -136 -242 -144 -15 -12 -20
-12 -33 -2 -14 11 -15 50 -13 306 l3 293 208 209 c183 184 207 212 207 240 0
37 -30 72 -60 72 -39 0 -76 -29 -207 -163 -94 -96 -134 -132 -142 -124 -7 7
-11 86 -11 227 0 213 0 217 -23 238 -29 27 -64 28 -97 2z"/>
</g>
</svg>
