<?xml version="1.0" standalone="no"?>
<!DOCTYPE svg PUBLIC "-//W3C//DTD SVG 20010904//EN"
 "http://www.w3.org/TR/2001/REC-SVG-20010904/DTD/svg10.dtd">
<svg version="1.0" xmlns="http://www.w3.org/2000/svg"
 width="300.000000pt" height="300.000000pt" viewBox="0 0 300.000000 300.000000"
 preserveAspectRatio="xMidYMid meet">
<metadata>
Created by potrace 1.13, written by Peter Selinger 2001-2015
</metadata>
<g transform="translate(0.000000,300.000000) scale(0.100000,-0.100000)"
fill="#000000" stroke="none">
<path d="M1233 2950 c-143 -26 -298 -78 -393 -131 -8 -5 -38 -20 -65 -33 -28
-14 -75 -43 -105 -65 -30 -22 -72 -53 -93 -68 -22 -15 -85 -75 -140 -133 -207
-214 -333 -458 -393 -758 -22 -115 -22 -409 1 -524 31 -156 65 -259 137 -405
52 -107 91 -143 157 -143 44 0 52 4 85 40 55 62 49 100 -46 284 -27 51 -67
190 -88 306 -5 25 -9 103 -9 173 -2 290 92 552 280 783 95 117 260 248 394
313 28 13 58 28 67 32 39 19 150 53 238 72 113 25 365 30 439 8 25 -7 65 -17
90 -21 102 -19 231 -73 231 -98 0 -9 -10 -26 -21 -38 -44 -47 -24 -52 311 -94
47 -5 97 -13 112 -16 39 -9 46 18 21 70 -23 47 -40 85 -77 176 -15 36 -34 77
-42 92 -8 14 -14 33 -14 41 0 9 -11 29 -25 44 l-25 28 -31 -37 c-17 -21 -36
-38 -43 -38 -7 0 -40 14 -74 30 -34 17 -67 30 -72 30 -5 0 -24 7 -42 14 -48
22 -160 52 -260 70 -117 22 -380 20 -505 -4z"/>
<path d="M2613 2282 c-46 -25 -73 -64 -73 -106 0 -23 18 -75 49 -139 54 -113
78 -179 91 -248 4 -25 14 -65 21 -90 20 -69 18 -336 -4 -429 -19 -78 -61 -219
-76 -248 -4 -9 -19 -39 -32 -67 -65 -134 -196 -299 -313 -394 -229 -186 -492
-281 -779 -281 -68 0 -146 4 -173 10 -155 30 -277 67 -321 95 -28 19 -30 51
-3 67 11 7 20 21 20 30 0 19 -17 25 -90 31 -69 6 -248 28 -310 37 -43 6 -58 5
-70 -6 -13 -12 -12 -19 7 -57 12 -23 31 -64 43 -92 12 -27 27 -63 34 -80 8
-16 26 -59 41 -95 50 -120 66 -132 100 -77 25 40 45 44 98 19 109 -52 226 -90
360 -116 89 -18 422 -22 497 -5 25 5 63 12 85 15 43 6 151 38 200 60 17 7 55
23 85 35 30 12 60 26 65 30 6 4 37 22 69 38 32 17 75 44 95 59 20 15 49 36 66
47 90 57 282 271 362 405 33 54 113 216 113 228 0 6 6 23 14 39 48 97 86 316
86 503 0 216 -27 351 -112 564 -47 119 -92 190 -136 216 -40 24 -67 25 -109 2z"/>
</g>
</svg>
