<?xml version="1.0" standalone="no"?>
<!DOCTYPE svg PUBLIC "-//W3C//DTD SVG 20010904//EN"
 "http://www.w3.org/TR/2001/REC-SVG-20010904/DTD/svg10.dtd">
<svg version="1.0" xmlns="http://www.w3.org/2000/svg"
 width="300.000000pt" height="300.000000pt" viewBox="0 0 300.000000 300.000000"
 preserveAspectRatio="xMidYMid meet">
<metadata>
Created by potrace 1.13, written by Peter Selinger 2001-2015
</metadata>
<g transform="translate(0.000000,300.000000) scale(0.100000,-0.100000)"
fill="#000000" stroke="none">
<path d="M1299 2961 l-24 -19 0 -646 c0 -606 1 -646 18 -663 16 -16 39 -18
207 -18 168 0 191 2 207 18 17 17 18 57 18 663 l0 646 -24 19 c-21 17 -41 19
-201 19 -160 0 -180 -2 -201 -19z"/>
<path d="M814 2620 c-64 -32 -226 -150 -288 -208 -36 -35 -113 -133 -182 -233
-77 -110 -204 -415 -204 -489 0 -14 -7 -47 -15 -74 -21 -68 -21 -334 0 -402 8
-27 15 -67 15 -89 0 -91 118 -379 210 -514 55 -80 273 -300 347 -349 134 -90
407 -212 472 -212 14 0 48 -7 75 -15 70 -21 442 -21 512 0 27 8 61 15 75 15
65 0 338 122 472 212 74 49 292 269 347 349 92 135 210 423 210 514 0 22 7 62
15 89 21 68 21 334 0 402 -8 27 -15 60 -15 74 0 74 -127 379 -204 489 -124
179 -178 237 -306 334 -157 117 -242 156 -267 121 -17 -23 -19 -404 -2 -437 6
-12 50 -62 98 -112 146 -150 210 -259 256 -438 21 -83 25 -119 25 -247 0 -128
-4 -164 -25 -247 -74 -284 -259 -500 -548 -638 -93 -45 -124 -54 -252 -76
-127 -21 -157 -21 -234 -5 -42 9 -110 24 -151 33 -137 31 -326 140 -431 250
-76 79 -119 143 -185 275 -78 155 -94 224 -94 408 0 183 16 253 92 405 73 145
122 216 203 295 37 36 73 77 81 92 17 33 21 407 4 439 -15 26 -37 24 -106 -11z"/>
</g>
</svg>
