<?xml version="1.0" standalone="no"?>
<!DOCTYPE svg PUBLIC "-//W3C//DTD SVG 20010904//EN"
 "http://www.w3.org/TR/2001/REC-SVG-20010904/DTD/svg10.dtd">
<svg version="1.0" xmlns="http://www.w3.org/2000/svg"
 width="300.000000pt" height="300.000000pt" viewBox="0 0 300.000000 300.000000"
 preserveAspectRatio="xMidYMid meet">
<metadata>
Created by potrace 1.13, written by Peter Selinger 2001-2015
</metadata>
<g transform="translate(0.000000,300.000000) scale(0.100000,-0.100000)"
fill="#000000" stroke="none">
<path d="M1099 2878 c-16 -64 -48 -159 -65 -195 -7 -17 -14 -36 -14 -42 0 -6
-10 -32 -21 -58 -12 -27 -30 -66 -39 -88 -39 -88 -161 -329 -195 -383 -6 -10
-21 -35 -33 -57 -13 -22 -33 -57 -45 -77 -12 -21 -35 -61 -51 -90 -15 -29 -34
-60 -40 -68 -7 -8 -18 -26 -24 -40 -7 -14 -23 -43 -35 -65 -97 -167 -257 -485
-257 -508 0 -8 -6 -30 -14 -49 -8 -18 -19 -79 -25 -133 -20 -183 15 -384 91
-515 4 -8 14 -26 20 -40 41 -86 201 -253 292 -307 79 -46 200 -98 268 -114
152 -36 422 -21 533 30 11 5 47 22 80 37 54 24 80 40 139 84 54 40 153 141
191 195 66 95 100 165 138 285 l23 75 394 5 c393 5 395 5 427 28 50 36 63 60
63 122 -1 60 -19 90 -75 126 -27 18 -59 19 -419 24 l-391 5 -19 70 c-10 39
-29 96 -42 128 -13 32 -24 65 -24 73 0 12 49 14 321 14 308 0 323 1 355 21 54
33 74 69 74 131 -1 58 -18 87 -75 124 -28 18 -55 19 -439 24 l-409 5 -29 50
c-15 28 -35 64 -43 80 -18 34 -32 59 -57 97 -40 60 -53 58 346 58 201 0 376 4
389 9 14 5 41 26 61 47 32 33 36 43 36 87 0 58 -24 102 -74 133 -29 18 -56 19
-490 22 -329 2 -464 6 -474 14 -12 10 -81 148 -128 256 -8 17 -21 47 -29 65
-8 17 -19 46 -25 62 -5 17 -21 62 -35 100 -15 39 -31 90 -37 115 -19 82 -51
95 -69 28z"/>
</g>
</svg>
