<?xml version="1.0" standalone="no"?>
<!DOCTYPE svg PUBLIC "-//W3C//DTD SVG 20010904//EN"
 "http://www.w3.org/TR/2001/REC-SVG-20010904/DTD/svg10.dtd">
<svg version="1.0" xmlns="http://www.w3.org/2000/svg"
 width="300.000000pt" height="300.000000pt" viewBox="0 0 300.000000 300.000000"
 preserveAspectRatio="xMidYMid meet">
<metadata>
Created by potrace 1.13, written by Peter Selinger 2001-2015
</metadata>
<g transform="translate(0.000000,300.000000) scale(0.100000,-0.100000)"
fill="#000000" stroke="none">
<path d="M1415 2941 c-23 -46 -21 -541 3 -591 20 -41 54 -56 106 -46 32 6 41
14 57 49 17 38 19 67 18 292 0 315 -1 319 -101 323 -66 3 -67 2 -83 -27z"/>
<path d="M372 2685 c-37 -16 -52 -42 -52 -91 0 -35 12 -49 218 -255 139 -139
227 -220 244 -224 35 -9 98 21 117 55 25 46 -7 90 -218 302 -108 109 -203 200
-211 204 -45 19 -69 21 -98 9z"/>
<path d="M2313 2467 c-201 -201 -223 -226 -223 -256 0 -24 9 -42 34 -67 35
-35 57 -41 98 -25 21 8 395 374 439 429 26 34 24 75 -7 111 -22 26 -33 31 -72
31 l-47 0 -222 -223z"/>
<path d="M1365 2005 c-22 -9 -52 -20 -66 -24 -77 -25 -194 -131 -243 -221 -38
-69 -66 -173 -66 -243 0 -62 27 -173 55 -228 54 -105 156 -196 275 -247 74
-32 272 -36 335 -8 22 10 60 28 84 39 61 28 172 140 206 207 44 86 66 201 54
280 -14 101 -24 132 -59 198 -31 58 -129 164 -174 187 -11 6 -30 16 -41 22
-74 39 -105 46 -210 50 -83 2 -120 0 -150 -12z"/>
<path d="M59 1587 c-16 -13 -29 -37 -33 -60 -6 -34 -4 -41 28 -73 l35 -35 291
3 290 3 25 30 c36 44 34 96 -6 129 l-31 26 -286 0 c-281 -1 -288 -1 -313 -23z"/>
<path d="M2314 1574 c-42 -43 -43 -69 -5 -114 l29 -35 258 -3 c143 -2 274 0
292 3 23 4 40 17 58 45 29 44 27 63 -13 110 l-25 30 -280 0 -281 0 -33 -36z"/>
<path d="M543 697 c-208 -207 -223 -225 -223 -258 0 -69 67 -119 126 -94 28
12 392 368 440 430 31 41 30 76 -2 114 -22 26 -33 31 -72 31 l-47 0 -222 -223z"/>
<path d="M2120 892 c-42 -43 -40 -78 9 -139 72 -89 395 -401 423 -408 57 -14
128 30 128 80 0 40 -59 111 -248 299 -182 181 -191 188 -235 193 -41 5 -49 2
-77 -25z"/>
<path d="M1457 723 c-9 -2 -26 -22 -37 -43 -18 -36 -20 -60 -20 -297 0 -240 1
-260 20 -291 27 -43 59 -55 107 -38 67 23 72 44 73 329 0 230 -1 251 -20 288
-26 50 -65 67 -123 52z"/>
</g>
</svg>
