<?xml version="1.0" standalone="no"?>
<!DOCTYPE svg PUBLIC "-//W3C//DTD SVG 20010904//EN"
 "http://www.w3.org/TR/2001/REC-SVG-20010904/DTD/svg10.dtd">
<svg version="1.0" xmlns="http://www.w3.org/2000/svg"
 width="400.000000pt" height="400.000000pt" viewBox="0 0 400.000000 400.000000"
 preserveAspectRatio="xMidYMid meet">
<metadata>
Created by potrace 1.13, written by Peter Selinger 2001-2015
</metadata>
<g transform="translate(0.000000,400.000000) scale(0.100000,-0.100000)"
fill="#000000" stroke="none">
<path d="M1734 3950 c-97 -10 -210 -37 -241 -56 -18 -11 -23 -24 -23 -57 l0
-43 -112 -13 c-234 -27 -439 -80 -498 -130 l-31 -26 0 -1705 0 -1705 29 -26
c56 -51 264 -104 522 -134 689 -80 1614 -6 1783 143 16 14 17 109 17 1724 l0
1708 -47 31 c-79 50 -232 88 -472 118 l-136 17 -3 42 c-4 55 -24 68 -144 93
-73 16 -142 21 -328 24 -129 2 -272 0 -316 -5z m501 -50 c28 -7 56 -19 64 -26
13 -12 9 -16 -25 -31 -34 -16 -70 -18 -274 -18 -248 0 -314 9 -308 43 6 33
140 52 343 47 83 -1 173 -8 200 -15z m-765 -345 c0 -22 73 -51 178 -72 122
-24 566 -25 694 0 103 19 178 49 178 71 0 20 15 20 123 1 85 -15 143 -32 136
-40 -8 -7 -202 -44 -289 -54 -269 -33 -726 -31 -1001 4 -133 17 -259 44 -259
55 0 4 37 15 83 24 45 9 91 18 102 20 41 8 55 6 55 -9z m-240 -279 c236 -38
412 -49 765 -49 258 0 395 4 520 16 156 16 334 41 378 53 16 5 17 -68 15
-1478 l-3 -1483 -35 -17 c-117 -57 -701 -98 -1110 -78 -339 16 -581 49 -637
86 l-23 14 0 1481 c0 1405 1 1480 18 1475 9 -3 60 -12 112 -20z"/>
<path d="M1842 2248 l-371 -593 238 -5 238 -5 -78 -365 c-43 -201 -90 -416
-103 -479 -13 -62 -21 -109 -16 -105 10 11 740 1174 740 1180 0 2 -107 5 -238
6 l-238 3 102 475 c56 261 101 476 99 478 -1 1 -169 -264 -373 -590z"/>
</g>
</svg>
