<?xml version="1.0" standalone="no"?>
<!DOCTYPE svg PUBLIC "-//W3C//DTD SVG 20010904//EN"
 "http://www.w3.org/TR/2001/REC-SVG-20010904/DTD/svg10.dtd">
<svg version="1.0" xmlns="http://www.w3.org/2000/svg"
 width="210.000000pt" height="210.000000pt" viewBox="0 0 210.000000 210.000000"
 preserveAspectRatio="xMidYMid meet">
<metadata>
Created by potrace 1.13, written by Peter Selinger 2001-2015
</metadata>
<g transform="translate(0.000000,210.000000) scale(0.100000,-0.100000)"
fill="#000000" stroke="none">
<path d="M403 2020 c-110 -54 -175 -157 -181 -291 -4 -69 -1 -85 32 -166 20
-49 54 -122 76 -163 47 -86 147 -227 166 -234 43 -17 193 206 275 409 35 87
34 208 -2 285 -37 80 -81 125 -155 160 -83 39 -130 39 -211 0z m175 -170 c46
-28 76 -98 67 -157 -8 -55 -53 -109 -105 -124 -34 -10 -44 -9 -85 11 -38 18
-52 32 -67 68 -23 51 -19 118 8 159 39 60 122 79 182 43z"/>
<path d="M262 1294 c-102 -27 -169 -73 -197 -133 -16 -36 -17 -46 -6 -83 25
-81 108 -132 275 -168 269 -58 584 27 627 170 25 84 -58 172 -198 211 -73 21
-69 22 -107 -43 l-16 -26 53 -12 c71 -17 148 -53 172 -79 l20 -23 -32 -28
c-19 -17 -65 -39 -110 -53 -195 -62 -477 -35 -576 53 l-32 28 20 22 c28 31 81
56 158 76 l66 16 -30 44 c-16 24 -31 44 -32 43 -1 0 -26 -7 -55 -15z"/>
<path d="M1418 1110 c-216 -39 -348 -157 -365 -326 l-6 -55 139 6 c234 10 238
11 252 49 26 71 104 103 186 76 47 -15 76 -66 58 -104 -12 -26 -105 -85 -213
-134 -36 -16 -85 -46 -108 -67 -41 -37 -109 -160 -96 -173 4 -4 96 -9 204 -10
l198 -4 6 32 c12 58 43 87 150 138 122 59 176 104 211 174 28 57 35 152 15
205 -27 72 -120 136 -251 173 -82 24 -300 35 -380 20z"/>
<path d="M1333 274 c-23 -9 -56 -31 -73 -50 -54 -62 -34 -130 53 -176 63 -33
175 -32 242 2 65 33 92 82 75 135 -13 39 -56 76 -109 94 -46 15 -137 13 -188
-5z"/>
</g>
</svg>
