<?xml version="1.0" standalone="no"?>
<!DOCTYPE svg PUBLIC "-//W3C//DTD SVG 20010904//EN"
 "http://www.w3.org/TR/2001/REC-SVG-20010904/DTD/svg10.dtd">
<svg version="1.0" xmlns="http://www.w3.org/2000/svg"
 width="210.000000pt" height="210.000000pt" viewBox="0 0 210.000000 210.000000"
 preserveAspectRatio="xMidYMid meet">
<metadata>
Created by potrace 1.13, written by Peter Selinger 2001-2015
</metadata>
<g transform="translate(0.000000,210.000000) scale(0.100000,-0.100000)"
fill="#000000" stroke="none">
<path d="M403 2020 c-110 -54 -175 -157 -181 -291 -4 -69 -1 -85 32 -166 20
-49 54 -122 76 -163 47 -86 147 -227 166 -234 43 -17 193 206 275 409 35 87
34 208 -2 285 -37 80 -81 125 -155 160 -83 39 -130 39 -211 0z m175 -170 c46
-28 76 -98 67 -157 -8 -55 -53 -109 -105 -124 -34 -10 -44 -9 -85 11 -38 18
-52 32 -67 68 -23 51 -19 118 8 159 39 60 122 79 182 43z"/>
<path d="M1445 1506 c-63 -27 -89 -120 -51 -178 19 -29 72 -58 106 -58 34 0
79 28 100 63 37 59 21 124 -39 164 -38 26 -72 28 -116 9z"/>
<path d="M262 1294 c-102 -27 -169 -73 -197 -133 -16 -36 -17 -46 -6 -83 25
-81 108 -132 275 -168 269 -58 584 27 627 170 25 84 -58 172 -198 211 -73 21
-69 22 -107 -43 l-16 -26 53 -12 c71 -17 148 -53 172 -79 l20 -23 -32 -28
c-19 -17 -65 -39 -110 -53 -195 -62 -477 -35 -576 53 l-32 28 20 22 c28 31 81
56 158 76 l66 16 -30 44 c-16 24 -31 44 -32 43 -1 0 -26 -7 -55 -15z"/>
<path d="M1295 1210 c-57 -36 -103 -78 -146 -131 -25 -32 -31 -53 -49 -175
-11 -77 -22 -149 -25 -161 -5 -22 -2 -23 53 -23 l59 0 6 98 c7 119 20 167 55
201 l27 26 3 -23 c2 -13 -4 -116 -13 -230 -16 -207 -16 -207 -91 -472 -41
-146 -77 -273 -80 -283 -5 -16 2 -18 77 -15 l82 3 68 243 c37 134 69 246 72
248 9 10 89 -117 138 -220 26 -55 60 -137 74 -181 15 -44 29 -82 31 -84 2 -2
33 8 69 24 l65 27 -6 37 c-16 92 -108 278 -217 440 l-50 74 7 116 c3 64 9 150
12 192 l6 77 42 -51 c47 -58 155 -143 236 -186 l57 -30 22 40 c13 22 19 44 15
48 -5 4 -36 28 -70 53 -86 66 -215 206 -249 271 -32 61 -32 61 -160 72 -66 6
-73 5 -120 -25z"/>
</g>
</svg>
