<?xml version="1.0" standalone="no"?>
<!DOCTYPE svg PUBLIC "-//W3C//DTD SVG 20010904//EN"
 "http://www.w3.org/TR/2001/REC-SVG-20010904/DTD/svg10.dtd">
<svg version="1.0" xmlns="http://www.w3.org/2000/svg"
 width="210.000000pt" height="210.000000pt" viewBox="0 0 210.000000 210.000000"
 preserveAspectRatio="xMidYMid meet">
<metadata>
Created by potrace 1.13, written by Peter Selinger 2001-2015
</metadata>
<g transform="translate(0.000000,210.000000) scale(0.100000,-0.100000)"
fill="#000000" stroke="none">
<path d="M403 2020 c-110 -54 -175 -157 -181 -291 -4 -69 -1 -85 32 -166 20
-49 54 -122 76 -163 47 -86 147 -227 166 -234 43 -17 193 206 275 409 35 87
34 208 -2 285 -37 80 -81 125 -155 160 -83 39 -130 39 -211 0z m175 -170 c46
-28 76 -98 67 -157 -8 -55 -53 -109 -105 -124 -34 -10 -44 -9 -85 11 -38 18
-52 32 -67 68 -23 51 -19 118 8 159 39 60 122 79 182 43z"/>
<path d="M262 1294 c-102 -27 -169 -73 -197 -133 -16 -36 -17 -46 -6 -83 25
-81 108 -132 275 -168 269 -58 584 27 627 170 25 84 -58 172 -198 211 -73 21
-69 22 -107 -43 l-16 -26 53 -12 c71 -17 148 -53 172 -79 l20 -23 -32 -28
c-19 -17 -65 -39 -110 -53 -195 -62 -477 -35 -576 53 l-32 28 20 22 c28 31 81
56 158 76 l66 16 -30 44 c-16 24 -31 44 -32 43 -1 0 -26 -7 -55 -15z"/>
<path d="M1068 887 l-337 -280 40 -49 c23 -26 45 -48 49 -48 5 0 132 102 282
228 151 125 281 232 289 239 13 10 58 -23 275 -203 142 -119 275 -229 295
-244 l35 -29 42 54 42 53 -110 91 -110 91 0 150 0 151 -112 -3 -113 -3 0 -52
c1 -29 -1 -53 -4 -53 -3 0 -19 13 -36 28 -16 16 -66 58 -110 94 l-80 65 -337
-280z"/>
<path d="M1162 728 l-242 -201 0 -253 0 -254 185 0 185 0 0 180 0 180 118 0
117 0 0 -177 0 -178 185 0 185 0 3 247 2 248 -232 192 c-129 106 -240 198
-248 205 -13 10 -57 -23 -258 -189z"/>
</g>
</svg>
