<?xml version="1.0" standalone="no"?>
<!DOCTYPE svg PUBLIC "-//W3C//DTD SVG 20010904//EN"
 "http://www.w3.org/TR/2001/REC-SVG-20010904/DTD/svg10.dtd">
<svg version="1.0" xmlns="http://www.w3.org/2000/svg"
 width="210.000000pt" height="210.000000pt" viewBox="0 0 210.000000 210.000000"
 preserveAspectRatio="xMidYMid meet">
<metadata>
Created by potrace 1.13, written by Peter Selinger 2001-2015
</metadata>
<g transform="translate(0.000000,210.000000) scale(0.100000,-0.100000)"
fill="#000000" stroke="none">
<path d="M403 2020 c-110 -54 -175 -157 -181 -291 -4 -69 -1 -85 32 -166 20
-49 54 -122 76 -163 47 -86 147 -227 166 -234 43 -17 193 206 275 409 35 87
34 208 -2 285 -37 80 -81 125 -155 160 -83 39 -130 39 -211 0z m175 -170 c46
-28 76 -98 67 -157 -8 -55 -53 -109 -105 -124 -34 -10 -44 -9 -85 11 -38 18
-52 32 -67 68 -23 51 -19 118 8 159 39 60 122 79 182 43z"/>
<path d="M262 1294 c-102 -27 -169 -73 -197 -133 -16 -36 -17 -46 -6 -83 25
-81 108 -132 275 -168 269 -58 584 27 627 170 25 84 -58 172 -198 211 -73 21
-69 22 -107 -43 l-16 -26 53 -12 c71 -17 148 -53 172 -79 l20 -23 -32 -28
c-19 -17 -65 -39 -110 -53 -195 -62 -477 -35 -576 53 l-32 28 20 22 c28 31 81
56 158 76 l66 16 -30 44 c-16 24 -31 44 -32 43 -1 0 -26 -7 -55 -15z"/>
<path d="M1759 1067 c-20 -8 -52 -23 -70 -35 -53 -33 -284 -272 -308 -319 -33
-66 -30 -73 33 -73 44 0 56 4 60 18 4 10 71 82 149 160 115 113 150 142 179
147 87 16 168 -52 168 -140 0 -49 -12 -69 -82 -141 -55 -56 -58 -62 -48 -88 5
-15 10 -43 10 -62 0 -19 4 -34 8 -34 19 0 183 180 202 221 37 82 23 189 -34
264 -54 70 -188 111 -267 82z"/>
<path d="M1290 870 l0 -101 28 3 27 3 0 95 0 95 -27 3 -28 3 0 -101z"/>
<path d="M1108 886 c-10 -7 -18 -17 -18 -22 0 -5 29 -39 65 -74 65 -64 65 -64
85 -44 20 20 20 20 -48 86 -59 59 -69 65 -84 54z"/>
<path d="M1020 670 l0 -31 98 3 c96 3 97 3 97 28 0 25 -1 25 -97 28 l-98 3 0
-31z"/>
<path d="M1155 509 c-109 -113 -129 -151 -130 -239 0 -143 109 -250 252 -250
91 1 131 25 281 173 125 124 171 181 187 235 6 21 4 22 -54 22 -40 0 -61 -4
-61 -12 0 -16 -259 -276 -292 -294 -58 -30 -138 -11 -176 43 -52 74 -42 122
45 213 l66 70 -11 43 c-7 23 -13 53 -14 66 -3 20 -14 12 -93 -70z"/>
<path d="M1890 420 l0 -30 95 0 95 0 0 30 0 30 -95 0 -95 0 0 -30z"/>
<path d="M1862 348 c-20 -20 -14 -31 53 -98 l65 -64 22 22 22 22 -64 65 c-67
67 -78 73 -98 53z"/>
<path d="M1760 225 l0 -95 30 0 30 0 0 95 0 95 -30 0 -30 0 0 -95z"/>
</g>
</svg>
