<?xml version="1.0" standalone="no"?>
<!DOCTYPE svg PUBLIC "-//W3C//DTD SVG 20010904//EN"
 "http://www.w3.org/TR/2001/REC-SVG-20010904/DTD/svg10.dtd">
<svg version="1.0" xmlns="http://www.w3.org/2000/svg"
 width="210.000000pt" height="210.000000pt" viewBox="0 0 210.000000 210.000000"
 preserveAspectRatio="xMidYMid meet">
<metadata>
Created by potrace 1.13, written by Peter Selinger 2001-2015
</metadata>
<g transform="translate(0.000000,210.000000) scale(0.100000,-0.100000)"
fill="#000000" stroke="none">
<path d="M111 2039 c-33 -40 -33 -41 -15 -59 11 -10 179 -152 374 -315 195
-164 366 -307 378 -319 l24 -21 34 40 c18 22 34 43 34 46 0 6 -776 662 -789
667 -4 1 -22 -16 -40 -39z"/>
<path d="M414 2026 c-28 -13 -54 -28 -58 -34 -3 -5 23 -35 58 -66 51 -45 71
-56 99 -56 52 0 98 -37 123 -98 16 -39 36 -66 80 -103 32 -27 61 -49 65 -49
13 0 22 88 16 142 -8 62 -44 142 -86 191 -42 47 -147 97 -204 96 -23 0 -65
-11 -93 -23z"/>
<path d="M220 1719 c0 -80 36 -184 110 -319 47 -86 147 -227 166 -234 7 -3 24
4 38 15 27 21 156 208 156 226 0 18 -159 144 -201 158 -57 20 -81 40 -104 84
-20 38 -132 141 -154 141 -7 0 -11 -26 -11 -71z"/>
</g>
</svg>
