<?xml version="1.0" standalone="no"?>
<!DOCTYPE svg PUBLIC "-//W3C//DTD SVG 20010904//EN"
 "http://www.w3.org/TR/2001/REC-SVG-20010904/DTD/svg10.dtd">
<svg version="1.0" xmlns="http://www.w3.org/2000/svg"
 width="891.000000pt" height="891.000000pt" viewBox="0 0 891.000000 891.000000"
 preserveAspectRatio="xMidYMid meet">
<metadata>
Created by potrace 1.13, written by Peter Selinger 2001-2015
</metadata>
<g transform="translate(0.000000,891.000000) scale(0.100000,-0.100000)"
fill="#000000" stroke="none">
<path d="M4710 8865 c-5 -14 -49 -120 -97 -237 l-88 -213 -5 -210 -5 -210
-126 -3 -126 -3 -6 75 c-3 44 -13 87 -23 104 -35 61 -35 61 -440 62 -203 1
-375 1 -381 1 -10 -1 -13 -32 -13 -121 l0 -119 -1297 -4 c-1414 -3 -1325 0
-1483 -58 -294 -109 -517 -371 -581 -686 -19 -89 -19 -171 -17 -2485 l3 -2393
22 -77 c99 -346 354 -591 703 -674 70 -17 169 -18 1357 -21 l1283 -4 2 -442 3
-442 375 -3 c348 -2 377 -1 409 16 49 26 71 73 71 149 l0 63 130 0 130 0 0
-202 1 -203 102 -248 102 -247 1333 0 c739 0 1423 4 1535 10 198 9 405 19 902
40 138 6 254 13 259 14 5 1 39 94 75 207 l65 204 3 1325 3 1325 -54 170 c-31
94 -61 191 -68 217 -8 31 -18 48 -28 48 -8 0 -100 4 -205 10 -104 5 -300 14
-435 20 -135 6 -387 17 -560 25 -173 8 -498 15 -723 15 l-407 0 2 798 3 797
445 2 c245 1 555 6 690 13 135 6 396 17 580 25 184 8 401 17 481 21 l146 7 67
221 67 221 -1 1314 0 1315 -66 212 -67 212 -81 6 c-45 4 -189 11 -321 16 -277
12 -600 26 -900 40 -115 6 -778 10 -1473 10 l-1262 0 -10 -25z m2957 -85 c114
-6 372 -17 573 -25 370 -15 436 -20 445 -35 3 -5 32 -97 65 -204 l60 -195 0
-1248 -1 -1248 -62 -205 -63 -205 -109 -7 c-61 -4 -216 -12 -345 -18 -129 -6
-316 -15 -415 -21 -99 -5 -259 -10 -355 -12 l-175 -2 -3 1710 c-1 941 0 1716
3 1724 4 11 22 12 90 7 46 -4 178 -11 292 -16z m-452 -1710 l0 -1715 -1197 -3
-1198 -2 0 1720 0 1720 1198 -2 1197 -3 0 -1715z m-2485 -2 l-1 -1623 -69 169
-70 170 0 1288 0 1288 59 142 c32 79 62 153 65 166 4 12 9 22 12 22 2 0 4
-730 4 -1622z m-606 1061 c59 -46 56 9 56 -1044 0 -1063 3 -1015 -62 -1055
-31 -19 -50 -20 -324 -20 -243 0 -294 2 -304 15 -10 12 26 15 285 17 280 3
297 4 311 22 18 25 18 31 -2 50 -13 14 -55 16 -304 16 l-289 0 -7 35 c-12 68
-25 65 291 65 275 0 286 1 306 21 18 18 19 23 6 42 -14 22 -19 22 -303 25
-215 2 -290 5 -296 15 -4 6 -8 36 -8 65 l0 52 290 0 c280 0 291 1 311 21 18
18 19 23 6 42 -14 22 -20 22 -308 27 l-294 5 0 90 0 90 300 5 c165 3 301 7
301 8 11 15 12 37 4 53 -10 18 -24 19 -295 19 -156 0 -290 3 -299 6 -13 5 -16
25 -16 110 l0 104 279 0 c154 0 291 4 304 9 33 13 42 39 21 62 -16 17 -40 19
-308 21 l-291 3 0 105 0 105 294 5 c282 5 294 6 307 25 12 18 11 24 -2 43 -15
22 -17 22 -310 22 l-295 0 3 88 3 87 293 5 c276 5 294 6 308 24 18 25 18 30
-4 49 -16 15 -56 17 -308 19 l-289 3 -3 39 c-2 22 -1 50 2 63 l6 23 275 0
c150 0 285 4 298 9 33 13 42 39 21 62 -16 17 -40 19 -308 21 l-291 3 -3 24
c-2 12 -1 34 2 47 l6 24 290 0 c286 0 289 0 304 22 13 19 14 25 2 43 -13 19
-24 20 -302 23 -159 1 -292 6 -297 11 -27 27 12 31 307 31 292 0 304 -1 330
-21z m386 -1049 l0 -830 -125 0 -126 0 3 148 3 147 80 5 80 5 0 35 0 35 -80 5
-80 5 -3 442 -2 442 82 3 83 3 0 40 0 40 -82 3 -83 3 0 149 0 150 125 0 125 0
0 -830z m-1108 -192 l3 -953 360 -3 c237 -2 373 1 397 8 58 17 88 63 95 149
l6 71 128 0 129 0 0 -206 0 -205 96 -237 c53 -130 99 -240 103 -245 4 -4 354
-8 777 -10 l769 -2 3 -797 2 -798 -777 0 -778 0 -47 -118 c-26 -64 -72 -178
-102 -252 l-56 -135 0 -197 0 -198 -130 0 -130 0 0 73 c0 54 -5 80 -20 104
-38 63 -39 63 -460 63 l-380 0 0 -630 0 -630 -1287 2 -1288 3 -70 24 c-287 97
-477 293 -557 577 l-23 79 -3 2300 c-2 1568 0 2329 8 2392 34 300 220 551 492
665 139 58 85 56 1465 57 l1273 1 2 -952z m4263 -3338 c110 -5 364 -16 565
-25 452 -18 446 -18 459 -59 5 -17 28 -92 51 -166 23 -74 45 -148 51 -164 5
-17 9 -533 9 -1291 l0 -1262 -41 -134 c-22 -74 -47 -156 -56 -184 -8 -27 -17
-57 -19 -66 -7 -20 -60 -25 -529 -45 -192 -8 -440 -19 -550 -24 -110 -5 -228
-9 -262 -10 l-63 0 0 1726 0 1727 93 -7 c50 -4 182 -12 292 -16z m-455 -1710
l0 -1720 -1197 2 -1198 3 -3 1705 c-1 938 0 1711 3 1718 3 9 253 12 1200 12
l1195 0 0 -1720z m-2480 -2 c0 -892 -3 -1619 -6 -1615 -7 6 -64 142 -90 212
-8 22 -22 56 -32 75 -16 33 -17 127 -20 1319 l-2 1283 61 152 c34 83 65 161
70 174 5 12 11 22 14 22 3 0 5 -730 5 -1622z m-610 1062 c62 -44 60 -6 60
-1043 0 -589 -4 -955 -10 -978 -5 -19 -24 -48 -41 -65 l-30 -29 -306 0 c-236
0 -307 3 -310 13 -4 9 56 12 279 12 240 0 287 2 306 16 25 17 29 46 9 63 -9 7
-110 12 -303 13 l-289 3 -3 47 -3 48 286 0 c291 0 325 4 325 38 -1 46 -2 47
-312 52 l-293 5 -3 63 -3 62 290 0 c250 0 292 2 305 16 9 8 16 22 16 29 0 7
-7 21 -16 29 -13 14 -55 16 -305 16 l-289 0 0 90 0 90 283 0 c240 0 286 2 305
16 25 17 29 46 9 63 -9 7 -110 12 -303 13 l-289 3 -3 108 -3 107 290 0 c250 0
292 2 305 16 22 21 20 51 -3 64 -12 6 -128 10 -305 10 l-286 0 0 110 0 110
293 0 c215 0 296 3 305 12 17 17 15 44 -4 62 -13 14 -55 16 -305 16 l-289 0 0
90 0 90 287 0 c252 0 289 2 305 17 21 19 23 44 6 61 -9 9 -90 12 -305 12
l-293 0 0 65 0 65 287 0 c252 0 289 2 305 17 21 19 23 44 6 61 -9 9 -91 12
-306 12 l-293 0 3 48 3 47 293 5 c246 4 294 7 302 20 14 22 12 36 -6 54 -13
14 -55 16 -305 16 -282 0 -289 0 -289 20 0 20 7 20 306 20 289 0 307 -1 334
-20z m390 -1050 l0 -830 -125 0 -125 0 0 145 0 144 78 3 77 3 3 43 3 42 -80 0
-81 0 0 445 0 445 81 0 80 0 -3 43 -3 42 -77 3 -78 3 0 149 0 150 125 0 125 0
0 -830z"/>
<path d="M6407 7708 c-23 -12 -22 -45 2 -57 26 -14 56 9 47 36 -8 26 -27 34
-49 21z"/>
<path d="M6482 7708 c-17 -17 -15 -55 3 -62 18 -7 45 2 45 15 0 5 11 2 25 -7
20 -13 28 -14 40 -4 21 17 19 47 -4 60 -15 7 -24 6 -36 -6 -15 -15 -17 -15
-34 0 -21 19 -24 19 -39 4z"/>
<path d="M6332 7658 c-16 -16 -15 -33 4 -49 14 -11 14 -13 0 -21 -20 -11 -21
-47 -1 -55 14 -5 14 -7 0 -24 -18 -19 -13 -59 7 -59 6 0 3 -9 -7 -20 -29 -32
6 -78 40 -50 20 16 19 49 -1 57 -15 5 -15 7 0 15 20 11 21 42 0 59 -14 11 -14
13 0 21 20 11 21 47 1 55 -14 5 -14 7 0 24 33 35 -9 81 -43 47z"/>
<path d="M6622 7658 c-16 -16 -15 -33 4 -49 14 -11 14 -13 0 -21 -9 -5 -16
-18 -16 -28 0 -10 7 -23 16 -28 14 -8 14 -10 0 -21 -21 -17 -20 -48 0 -59 15
-8 15 -10 0 -15 -21 -8 -21 -41 0 -58 33 -27 70 24 39 55 -9 9 -12 16 -6 16
19 0 23 41 6 59 -14 17 -14 19 0 24 8 4 15 16 15 27 0 11 -7 23 -15 27 -14 5
-14 8 2 25 13 15 15 23 7 36 -14 22 -36 26 -52 10z"/>
<path d="M6400 7385 c-18 -22 -8 -50 19 -50 32 0 49 28 32 49 -17 20 -35 20
-51 1z"/>
<path d="M6474 7386 c-3 -8 -4 -23 -2 -33 4 -23 46 -30 54 -8 6 15 8 15 24 0
26 -23 55 -15 55 14 0 35 -29 50 -53 28 -17 -16 -20 -16 -25 -2 -8 19 -46 20
-53 1z"/>
<path d="M5256 7304 l-48 -55 -67 2 -66 3 -3 -52 c-3 -50 -2 -52 22 -52 15 0
26 -3 26 -6 0 -3 -18 -28 -40 -54 -22 -26 -40 -51 -40 -54 0 -3 59 -77 131
-163 73 -87 132 -159 133 -160 1 -1 14 8 29 20 l26 22 -115 138 c-64 76 -113
144 -111 150 3 7 54 71 115 144 l110 131 -22 21 c-12 12 -25 21 -27 21 -3 0
-27 -25 -53 -56z"/>
<path d="M5276 7190 c-39 -47 -84 -101 -98 -120 l-27 -35 97 -118 97 -117 120
2 120 3 3 87 3 87 -88 3 -88 3 -3 52 -3 52 88 3 88 3 0 89 0 88 -118 2 -119 1
-72 -85z"/>
<path d="M6402 7271 c-18 -11 -12 -41 10 -55 14 -8 22 -7 35 7 29 29 -10 71
-45 48z"/>
<path d="M6474 7266 c-3 -8 -4 -23 -2 -33 4 -23 46 -30 54 -8 6 14 8 14 26 -2
24 -22 53 -7 53 28 0 29 -29 37 -55 14 -16 -14 -18 -14 -23 0 -8 19 -46 20
-53 1z"/>
<path d="M6330 7225 c-13 -16 -5 -55 12 -55 6 0 4 -8 -5 -18 -21 -23 -21 -36
-1 -53 14 -11 14 -13 0 -21 -20 -11 -21 -47 -1 -55 14 -5 14 -7 0 -24 -25 -27
-11 -61 23 -57 32 4 41 32 17 58 -14 16 -14 18 0 23 20 8 19 44 -1 55 -14 8
-14 10 0 21 21 17 20 48 0 59 -15 8 -15 10 0 15 19 7 21 38 4 55 -16 16 -33
15 -48 -3z"/>
<path d="M6622 7228 c-17 -17 -15 -45 4 -56 14 -8 14 -10 0 -21 -9 -8 -16 -19
-16 -26 0 -7 7 -18 16 -26 14 -11 14 -13 0 -21 -20 -11 -21 -47 -1 -55 14 -5
14 -7 0 -23 -24 -26 -15 -54 17 -58 34 -4 48 30 23 57 -14 17 -14 19 0 24 20
8 19 44 -1 55 -14 8 -14 10 0 21 20 17 20 30 -1 53 -9 10 -11 18 -5 18 17 0
25 39 12 55 -15 18 -32 19 -48 3z"/>
<path d="M6912 7228 c-17 -17 -15 -48 4 -55 15 -5 15 -7 0 -15 -20 -11 -21
-42 0 -59 14 -11 14 -13 0 -21 -20 -11 -21 -47 -1 -55 14 -5 14 -7 0 -23 -23
-26 -15 -55 14 -55 35 0 50 29 28 53 -16 17 -16 20 -2 25 20 8 19 44 -1 55
-14 8 -14 10 0 21 20 17 20 30 -1 53 -9 10 -11 18 -5 18 17 0 25 39 12 55 -15
18 -32 19 -48 3z"/>
<path d="M6695 6956 c-25 -18 -15 -50 16 -54 28 -3 43 16 33 42 -8 21 -30 26
-49 12z"/>
<path d="M6772 6961 c-8 -4 -12 -19 -10 -32 4 -29 45 -39 54 -14 6 14 7 14 18
-1 17 -23 60 -15 64 13 4 30 -28 47 -55 28 -18 -13 -22 -13 -33 0 -14 17 -20
18 -38 6z"/>
<path d="M6400 6825 c-18 -22 -8 -50 19 -50 32 0 49 28 32 49 -17 20 -35 20
-51 1z"/>
<path d="M6483 6833 c-19 -7 -16 -53 3 -60 9 -3 25 -1 35 6 15 8 23 8 38 0 26
-17 53 -4 49 22 -5 33 -33 47 -55 27 -15 -14 -20 -14 -31 -2 -13 15 -19 16
-39 7z"/>
<path d="M6337 6789 c-21 -12 -22 -45 -1 -57 14 -8 14 -10 0 -21 -9 -8 -16
-19 -16 -26 0 -7 7 -18 16 -26 14 -11 14 -13 0 -21 -20 -11 -21 -42 -1 -58 14
-11 13 -14 -1 -24 -27 -20 -14 -51 21 -51 35 0 48 31 21 51 -14 10 -15 13 -1
24 20 16 19 47 -1 58 -14 8 -14 10 0 21 9 8 16 19 16 26 0 7 -7 18 -16 26 -14
11 -14 13 0 21 9 5 16 18 16 28 0 25 -30 41 -53 29z"/>
<path d="M6627 6789 c-21 -12 -22 -45 -1 -57 14 -8 14 -10 0 -21 -9 -8 -16
-19 -16 -26 0 -7 7 -18 16 -26 14 -11 14 -13 0 -21 -20 -11 -21 -42 -1 -58 14
-11 13 -14 -1 -24 -27 -20 -14 -51 21 -51 35 0 48 31 21 51 -14 10 -15 13 -1
24 20 16 19 47 -1 58 -14 8 -14 10 0 21 9 8 16 19 16 26 0 7 -7 18 -16 26 -14
11 -14 13 0 21 9 5 16 18 16 28 0 25 -30 41 -53 29z"/>
<path d="M6917 6789 c-21 -12 -22 -45 -1 -57 14 -8 14 -10 0 -21 -21 -17 -20
-48 0 -59 15 -8 15 -10 0 -15 -18 -7 -21 -38 -5 -54 8 -8 7 -16 -2 -30 -18
-30 -5 -55 28 -51 33 4 44 35 19 54 -14 10 -15 13 -1 24 19 16 19 34 0 53 -13
13 -13 16 0 27 19 16 19 34 -1 51 -14 11 -14 13 0 21 9 5 16 18 16 28 0 25
-30 41 -53 29z"/>
<path d="M6683 6504 c-6 -17 6 -45 23 -51 21 -7 47 23 40 45 -9 27 -53 30 -63
6z"/>
<path d="M6767 6513 c-13 -12 -7 -51 8 -57 18 -7 45 3 45 16 0 5 10 2 22 -6
28 -20 61 -4 56 27 -4 28 -47 36 -64 13 -10 -15 -12 -15 -18 -1 -5 15 -37 21
-49 8z"/>
<path d="M1379 5765 c-14 -8 -32 -28 -39 -45 -26 -62 33 -130 101 -115 76 17
89 124 18 160 -34 18 -47 18 -80 0z"/>
<path d="M1579 5765 c-14 -8 -32 -28 -39 -45 -26 -62 33 -130 101 -115 76 17
89 124 18 160 -34 18 -47 18 -80 0z"/>
<path d="M1779 5765 c-90 -49 -35 -180 67 -160 81 15 96 123 23 160 -35 18
-56 18 -90 0z"/>
<path d="M1979 5765 c-14 -8 -32 -28 -39 -45 -26 -62 33 -130 101 -115 76 17
89 124 18 160 -34 18 -47 18 -80 0z"/>
<path d="M2179 5765 c-14 -8 -32 -28 -39 -45 -26 -62 33 -130 101 -115 76 17
89 124 18 160 -34 18 -47 18 -80 0z"/>
<path d="M2779 5765 c-14 -8 -32 -28 -39 -45 -26 -62 33 -130 101 -115 76 17
89 124 18 160 -34 18 -47 18 -80 0z"/>
<path d="M2979 5765 c-14 -8 -32 -28 -39 -45 -26 -62 33 -130 101 -115 76 17
89 124 18 160 -34 18 -47 18 -80 0z"/>
<path d="M3179 5765 c-14 -8 -32 -28 -39 -45 -26 -62 33 -130 101 -115 76 17
89 124 18 160 -34 18 -47 18 -80 0z"/>
<path d="M3379 5765 c-14 -8 -32 -28 -39 -45 -26 -62 33 -130 101 -115 76 17
89 124 18 160 -34 18 -47 18 -80 0z"/>
<path d="M3579 5765 c-14 -8 -32 -28 -39 -45 -26 -62 33 -130 101 -115 76 17
89 124 18 160 -34 18 -47 18 -80 0z"/>
<path d="M1379 5565 c-14 -8 -32 -28 -39 -45 -26 -62 33 -130 101 -115 76 17
89 124 18 160 -34 18 -47 18 -80 0z"/>
<path d="M1579 5565 c-14 -8 -32 -28 -39 -45 -26 -62 33 -130 101 -115 76 17
89 124 18 160 -34 18 -47 18 -80 0z"/>
<path d="M1779 5565 c-90 -49 -35 -180 67 -160 81 15 96 123 23 160 -35 18
-56 18 -90 0z"/>
<path d="M1979 5565 c-14 -8 -32 -28 -39 -45 -26 -62 33 -130 101 -115 76 17
89 124 18 160 -34 18 -47 18 -80 0z"/>
<path d="M2179 5565 c-14 -8 -32 -28 -39 -45 -26 -62 33 -130 101 -115 76 17
89 124 18 160 -34 18 -47 18 -80 0z"/>
<path d="M2379 5565 c-14 -8 -32 -28 -39 -45 -26 -62 33 -130 101 -115 76 17
89 124 18 160 -34 18 -47 18 -80 0z"/>
<path d="M2779 5565 c-14 -8 -32 -28 -39 -45 -26 -62 33 -130 101 -115 76 17
89 124 18 160 -34 18 -47 18 -80 0z"/>
<path d="M2979 5565 c-14 -8 -32 -28 -39 -45 -26 -62 33 -130 101 -115 76 17
89 124 18 160 -34 18 -47 18 -80 0z"/>
<path d="M3179 5565 c-14 -8 -32 -28 -39 -45 -26 -62 33 -130 101 -115 76 17
89 124 18 160 -34 18 -47 18 -80 0z"/>
<path d="M3379 5565 c-14 -8 -32 -28 -39 -45 -26 -62 33 -130 101 -115 76 17
89 124 18 160 -34 18 -47 18 -80 0z"/>
<path d="M3579 5565 c-14 -8 -32 -28 -39 -45 -26 -62 33 -130 101 -115 76 17
89 124 18 160 -34 18 -47 18 -80 0z"/>
<path d="M3779 5565 c-14 -8 -32 -28 -39 -45 -26 -62 33 -130 101 -115 76 17
89 124 18 160 -34 18 -47 18 -80 0z"/>
<path d="M2179 5365 c-14 -8 -32 -28 -39 -45 -26 -62 33 -130 101 -115 76 17
89 124 18 160 -34 18 -47 18 -80 0z"/>
<path d="M2379 5365 c-14 -8 -32 -28 -39 -45 -26 -62 33 -130 101 -115 76 17
89 124 18 160 -34 18 -47 18 -80 0z"/>
<path d="M3579 5365 c-14 -8 -32 -28 -39 -45 -26 -62 33 -130 101 -115 76 17
89 124 18 160 -34 18 -47 18 -80 0z"/>
<path d="M3779 5365 c-14 -8 -32 -28 -39 -45 -26 -62 33 -130 101 -115 76 17
89 124 18 160 -34 18 -47 18 -80 0z"/>
<path d="M2179 5165 c-14 -8 -32 -28 -39 -45 -26 -62 33 -130 101 -115 76 17
89 124 18 160 -34 18 -47 18 -80 0z"/>
<path d="M2379 5165 c-14 -8 -32 -28 -39 -45 -26 -62 33 -130 101 -115 76 17
89 124 18 160 -34 18 -47 18 -80 0z"/>
<path d="M3579 5165 c-14 -8 -32 -28 -39 -45 -26 -62 33 -130 101 -115 76 17
89 124 18 160 -34 18 -47 18 -80 0z"/>
<path d="M3779 5165 c-14 -8 -32 -28 -39 -45 -26 -62 33 -130 101 -115 76 17
89 124 18 160 -34 18 -47 18 -80 0z"/>
<path d="M1579 4965 c-14 -8 -32 -28 -39 -45 -26 -62 33 -130 101 -115 76 17
89 124 18 160 -34 18 -47 18 -80 0z"/>
<path d="M1779 4965 c-90 -49 -35 -180 67 -160 81 15 96 123 23 160 -35 18
-56 18 -90 0z"/>
<path d="M1979 4965 c-14 -8 -32 -28 -39 -45 -26 -62 33 -130 101 -115 76 17
89 124 18 160 -34 18 -47 18 -80 0z"/>
<path d="M2179 4965 c-14 -8 -32 -28 -39 -45 -26 -62 33 -130 101 -115 76 17
89 124 18 160 -34 18 -47 18 -80 0z"/>
<path d="M2379 4965 c-14 -8 -32 -28 -39 -45 -26 -62 33 -130 101 -115 76 17
89 124 18 160 -34 18 -47 18 -80 0z"/>
<path d="M2979 4965 c-14 -8 -32 -28 -39 -45 -26 -62 33 -130 101 -115 76 17
89 124 18 160 -34 18 -47 18 -80 0z"/>
<path d="M3179 4965 c-14 -8 -32 -28 -39 -45 -26 -62 33 -130 101 -115 76 17
89 124 18 160 -34 18 -47 18 -80 0z"/>
<path d="M3379 4965 c-14 -8 -32 -28 -39 -45 -26 -62 33 -130 101 -115 76 17
89 124 18 160 -34 18 -47 18 -80 0z"/>
<path d="M3579 4965 c-14 -8 -32 -28 -39 -45 -26 -62 33 -130 101 -115 76 17
89 124 18 160 -34 18 -47 18 -80 0z"/>
<path d="M3779 4965 c-14 -8 -32 -28 -39 -45 -26 -62 33 -130 101 -115 76 17
89 124 18 160 -34 18 -47 18 -80 0z"/>
<path d="M1379 4765 c-14 -8 -32 -28 -39 -45 -26 -62 33 -130 101 -115 76 17
89 124 18 160 -34 18 -47 18 -80 0z"/>
<path d="M1579 4765 c-14 -8 -32 -28 -39 -45 -26 -62 33 -130 101 -115 76 17
89 124 18 160 -34 18 -47 18 -80 0z"/>
<path d="M1779 4765 c-90 -49 -35 -180 67 -160 81 15 96 123 23 160 -35 18
-56 18 -90 0z"/>
<path d="M1979 4765 c-14 -8 -32 -28 -39 -45 -26 -62 33 -130 101 -115 76 17
89 124 18 160 -34 18 -47 18 -80 0z"/>
<path d="M2179 4765 c-14 -8 -32 -28 -39 -45 -26 -62 33 -130 101 -115 76 17
89 124 18 160 -34 18 -47 18 -80 0z"/>
<path d="M2779 4765 c-14 -8 -32 -28 -39 -45 -26 -62 33 -130 101 -115 76 17
89 124 18 160 -34 18 -47 18 -80 0z"/>
<path d="M2979 4765 c-14 -8 -32 -28 -39 -45 -26 -62 33 -130 101 -115 76 17
89 124 18 160 -34 18 -47 18 -80 0z"/>
<path d="M3179 4765 c-14 -8 -32 -28 -39 -45 -26 -62 33 -130 101 -115 76 17
89 124 18 160 -34 18 -47 18 -80 0z"/>
<path d="M3379 4765 c-14 -8 -32 -28 -39 -45 -26 -62 33 -130 101 -115 76 17
89 124 18 160 -34 18 -47 18 -80 0z"/>
<path d="M3579 4765 c-14 -8 -32 -28 -39 -45 -26 -62 33 -130 101 -115 76 17
89 124 18 160 -34 18 -47 18 -80 0z"/>
<path d="M4579 4765 c-14 -8 -32 -28 -39 -45 -26 -62 33 -130 101 -115 76 17
89 124 18 160 -34 18 -47 18 -80 0z"/>
<path d="M4779 4765 c-14 -8 -32 -28 -39 -45 -26 -62 33 -130 101 -115 76 17
89 124 18 160 -34 18 -47 18 -80 0z"/>
<path d="M4979 4765 c-14 -8 -32 -28 -39 -45 -26 -62 33 -130 101 -115 76 17
89 124 18 160 -34 18 -47 18 -80 0z"/>
<path d="M1379 4565 c-14 -8 -32 -28 -39 -45 -26 -62 33 -130 101 -115 76 17
89 124 18 160 -34 18 -47 18 -80 0z"/>
<path d="M1579 4565 c-14 -8 -32 -28 -39 -45 -26 -62 33 -130 101 -115 76 17
89 124 18 160 -34 18 -47 18 -80 0z"/>
<path d="M2779 4565 c-14 -8 -32 -28 -39 -45 -26 -62 33 -130 101 -115 76 17
89 124 18 160 -34 18 -47 18 -80 0z"/>
<path d="M2979 4565 c-14 -8 -32 -28 -39 -45 -26 -62 33 -130 101 -115 76 17
89 124 18 160 -34 18 -47 18 -80 0z"/>
<path d="M4579 4565 c-14 -8 -32 -28 -39 -45 -26 -62 33 -130 101 -115 76 17
89 124 18 160 -34 18 -47 18 -80 0z"/>
<path d="M4979 4565 c-14 -8 -32 -28 -39 -45 -26 -62 33 -130 101 -115 76 17
89 124 18 160 -34 18 -47 18 -80 0z"/>
<path d="M1379 4365 c-14 -8 -32 -28 -39 -45 -26 -62 33 -130 101 -115 76 17
89 124 18 160 -34 18 -47 18 -80 0z"/>
<path d="M1579 4365 c-14 -8 -32 -28 -39 -45 -26 -62 33 -130 101 -115 76 17
89 124 18 160 -34 18 -47 18 -80 0z"/>
<path d="M2779 4365 c-14 -8 -32 -28 -39 -45 -26 -62 33 -130 101 -115 76 17
89 124 18 160 -34 18 -47 18 -80 0z"/>
<path d="M2979 4365 c-14 -8 -32 -28 -39 -45 -26 -62 33 -130 101 -115 76 17
89 124 18 160 -34 18 -47 18 -80 0z"/>
<path d="M4579 4365 c-14 -8 -32 -28 -39 -45 -26 -62 33 -130 101 -115 76 17
89 124 18 160 -34 18 -47 18 -80 0z"/>
<path d="M4979 4365 c-14 -8 -32 -28 -39 -45 -26 -62 33 -130 101 -115 76 17
89 124 18 160 -34 18 -47 18 -80 0z"/>
<path d="M1379 4165 c-14 -8 -32 -28 -39 -45 -26 -62 33 -130 101 -115 76 17
89 124 18 160 -34 18 -47 18 -80 0z"/>
<path d="M1579 4165 c-14 -8 -32 -28 -39 -45 -26 -62 33 -130 101 -115 76 17
89 124 18 160 -34 18 -47 18 -80 0z"/>
<path d="M1779 4165 c-90 -49 -35 -180 67 -160 81 15 96 123 23 160 -35 18
-56 18 -90 0z"/>
<path d="M1979 4165 c-14 -8 -32 -28 -39 -45 -26 -62 33 -130 101 -115 76 17
89 124 18 160 -34 18 -47 18 -80 0z"/>
<path d="M2179 4165 c-14 -8 -32 -28 -39 -45 -26 -62 33 -130 101 -115 76 17
89 124 18 160 -34 18 -47 18 -80 0z"/>
<path d="M2379 4165 c-14 -8 -32 -28 -39 -45 -26 -62 33 -130 101 -115 76 17
89 124 18 160 -34 18 -47 18 -80 0z"/>
<path d="M2779 4165 c-14 -8 -32 -28 -39 -45 -26 -62 33 -130 101 -115 76 17
89 124 18 160 -34 18 -47 18 -80 0z"/>
<path d="M2979 4165 c-14 -8 -32 -28 -39 -45 -26 -62 33 -130 101 -115 76 17
89 124 18 160 -34 18 -47 18 -80 0z"/>
<path d="M3179 4165 c-14 -8 -32 -28 -39 -45 -26 -62 33 -130 101 -115 76 17
89 124 18 160 -34 18 -47 18 -80 0z"/>
<path d="M3379 4165 c-14 -8 -32 -28 -39 -45 -26 -62 33 -130 101 -115 76 17
89 124 18 160 -34 18 -47 18 -80 0z"/>
<path d="M3579 4165 c-14 -8 -32 -28 -39 -45 -26 -62 33 -130 101 -115 76 17
89 124 18 160 -34 18 -47 18 -80 0z"/>
<path d="M3779 4165 c-14 -8 -32 -28 -39 -45 -26 -62 33 -130 101 -115 76 17
89 124 18 160 -34 18 -47 18 -80 0z"/>
<path d="M4579 4165 c-14 -8 -32 -28 -39 -45 -26 -62 33 -130 101 -115 76 17
89 124 18 160 -34 18 -47 18 -80 0z"/>
<path d="M4979 4165 c-14 -8 -32 -28 -39 -45 -26 -62 33 -130 101 -115 76 17
89 124 18 160 -34 18 -47 18 -80 0z"/>
<path d="M1379 3965 c-14 -8 -32 -28 -39 -45 -26 -62 33 -130 101 -115 76 17
89 124 18 160 -34 18 -47 18 -80 0z"/>
<path d="M1579 3965 c-14 -8 -32 -28 -39 -45 -26 -62 33 -130 101 -115 76 17
89 124 18 160 -34 18 -47 18 -80 0z"/>
<path d="M1779 3965 c-90 -49 -35 -180 67 -160 81 15 96 123 23 160 -35 18
-56 18 -90 0z"/>
<path d="M1979 3965 c-14 -8 -32 -28 -39 -45 -26 -62 33 -130 101 -115 76 17
89 124 18 160 -34 18 -47 18 -80 0z"/>
<path d="M2179 3965 c-14 -8 -32 -28 -39 -45 -26 -62 33 -130 101 -115 76 17
89 124 18 160 -34 18 -47 18 -80 0z"/>
<path d="M2379 3965 c-14 -8 -32 -28 -39 -45 -26 -62 33 -130 101 -115 76 17
89 124 18 160 -34 18 -47 18 -80 0z"/>
<path d="M2779 3965 c-14 -8 -32 -28 -39 -45 -26 -62 33 -130 101 -115 76 17
89 124 18 160 -34 18 -47 18 -80 0z"/>
<path d="M2979 3965 c-14 -8 -32 -28 -39 -45 -26 -62 33 -130 101 -115 76 17
89 124 18 160 -34 18 -47 18 -80 0z"/>
<path d="M3179 3965 c-14 -8 -32 -28 -39 -45 -26 -62 33 -130 101 -115 76 17
89 124 18 160 -34 18 -47 18 -80 0z"/>
<path d="M3379 3965 c-14 -8 -32 -28 -39 -45 -26 -62 33 -130 101 -115 76 17
89 124 18 160 -34 18 -47 18 -80 0z"/>
<path d="M3579 3965 c-14 -8 -32 -28 -39 -45 -26 -62 33 -130 101 -115 76 17
89 124 18 160 -34 18 -47 18 -80 0z"/>
<path d="M3779 3965 c-14 -8 -32 -28 -39 -45 -26 -62 33 -130 101 -115 76 17
89 124 18 160 -34 18 -47 18 -80 0z"/>
<path d="M4179 3965 c-14 -8 -32 -28 -39 -45 -26 -62 33 -130 101 -115 76 17
89 124 18 160 -34 18 -47 18 -80 0z"/>
<path d="M4579 3965 c-14 -8 -32 -28 -39 -45 -26 -62 33 -130 101 -115 76 17
89 124 18 160 -34 18 -47 18 -80 0z"/>
<path d="M4779 3965 c-14 -8 -32 -28 -39 -45 -26 -62 33 -130 101 -115 76 17
89 124 18 160 -34 18 -47 18 -80 0z"/>
<path d="M4979 3965 c-14 -8 -32 -28 -39 -45 -26 -62 33 -130 101 -115 76 17
89 124 18 160 -34 18 -47 18 -80 0z"/>
<path d="M1470 2819 c0 -55 -2 -60 -17 -53 -10 4 -41 9 -69 12 -46 3 -55 1
-88 -28 -42 -37 -61 -94 -52 -155 17 -112 122 -169 207 -112 60 40 69 72 69
245 l0 152 -25 0 c-24 0 -25 -3 -25 -61z m-47 -99 c51 -40 59 -129 16 -184
-16 -20 -29 -26 -59 -26 -55 0 -80 34 -80 109 0 61 17 96 54 111 32 13 41 12
69 -10z"/>
<path d="M1846 2859 c-52 -41 -23 -129 42 -129 36 0 72 37 72 74 0 31 -40 76
-68 76 -11 0 -31 -9 -46 -21z m70 -7 c6 -4 16 -17 23 -30 27 -52 -51 -99 -93
-56 -43 43 19 120 70 86z"/>
<path d="M823 2863 c-8 -2 -13 -22 -13 -44 0 -32 -3 -39 -20 -39 -13 0 -20 -7
-20 -20 0 -13 7 -20 20 -20 19 0 20 -7 20 -110 0 -104 1 -112 25 -135 32 -33
105 -36 105 -5 0 14 -7 20 -21 20 -11 0 -29 5 -40 10 -17 10 -19 22 -19 115
l0 105 80 0 c73 0 80 2 80 20 0 18 -7 20 -80 20 l-80 0 0 45 c0 44 -6 51 -37
38z"/>
<path d="M1045 2770 c-12 -19 7 -30 54 -30 52 0 71 -12 71 -47 0 -21 -5 -23
-46 -23 -25 0 -61 -7 -79 -15 -94 -45 -60 -185 45 -185 23 0 50 5 61 10 13 7
19 7 19 0 0 -5 11 -10 25 -10 l25 0 0 129 c0 115 -2 131 -21 155 -18 23 -27
26 -84 26 -35 0 -67 -4 -70 -10z m123 -182 c6 -70 -77 -109 -114 -53 -33 50 5
96 76 92 33 -2 35 -4 38 -39z"/>
<path d="M1594 2747 c-79 -72 -61 -234 31 -273 49 -20 87 -17 126 9 67 45 89
148 49 227 -24 48 -64 70 -125 70 -37 0 -52 -6 -81 -33z m136 -36 c34 -33 45
-68 36 -115 -13 -69 -63 -102 -121 -80 -42 16 -61 136 -29 182 16 23 46 40 72
41 8 1 26 -12 42 -28z"/>
<path d="M6396 2469 c-16 -23 -12 -44 10 -53 18 -7 44 3 44 17 0 5 9 2 21 -9
15 -14 24 -16 37 -8 25 16 27 51 3 64 -17 8 -24 7 -38 -9 -17 -20 -17 -20 -30
-1 -18 25 -28 25 -47 -1z"/>
<path d="M6552 2478 c-30 -30 0 -78 37 -58 26 13 27 32 3 53 -22 20 -25 20
-40 5z"/>
<path d="M6327 2434 c-13 -13 -7 -53 9 -62 15 -8 15 -10 0 -15 -19 -7 -21 -38
-4 -55 9 -9 9 -15 0 -24 -17 -17 -15 -45 4 -56 15 -8 15 -10 0 -15 -24 -9 -20
-54 4 -62 39 -12 65 30 35 55 -14 12 -14 15 0 30 19 21 19 25 -1 44 -14 15
-14 17 0 32 20 19 20 28 1 44 -14 11 -14 15 2 32 13 15 15 23 7 36 -12 18 -45
27 -57 16z"/>
<path d="M6617 2433 c-11 -10 -8 -51 4 -59 8 -4 8 -9 0 -17 -15 -15 -14 -54 2
-61 10 -5 10 -7 0 -12 -16 -7 -17 -50 -3 -59 8 -5 7 -11 0 -20 -18 -22 -8 -60
17 -63 30 -4 47 28 28 55 -13 18 -13 22 0 33 19 16 19 25 -1 44 -14 15 -14 17
0 32 20 19 20 28 1 44 -13 11 -13 15 0 33 10 14 11 25 4 39 -10 18 -39 24 -52
11z"/>
<path d="M6396 2154 c-12 -12 -13 -20 -6 -35 13 -23 48 -25 57 -3 6 15 7 15
19 0 19 -26 59 -17 59 13 0 34 -29 50 -52 29 -15 -14 -20 -14 -31 -2 -16 18
-27 18 -46 -2z"/>
<path d="M6550 2155 c-18 -22 -8 -50 19 -50 32 0 49 28 32 49 -17 20 -35 20
-51 1z"/>
<path d="M5252 2074 l-43 -54 -69 0 -70 0 0 -49 c0 -46 2 -50 26 -53 l27 -3
-46 -55 c-44 -53 -45 -56 -28 -75 9 -11 70 -84 135 -162 l118 -143 23 18 c14
9 25 21 25 25 0 6 -45 62 -217 268 -11 14 1 32 89 140 57 68 110 133 118 143
13 16 12 20 -10 37 -14 10 -27 18 -30 18 -3 0 -24 -25 -48 -55z"/>
<path d="M6391 2032 c-20 -38 36 -74 57 -36 8 14 10 14 21 0 19 -22 48 -20 56
4 13 40 -30 65 -56 34 -11 -14 -13 -14 -21 0 -12 21 -45 20 -57 -2z"/>
<path d="M6552 2041 c-8 -4 -12 -19 -10 -32 4 -29 45 -34 61 -7 19 30 -19 60
-51 39z"/>
<path d="M5245 1928 c-49 -61 -91 -114 -93 -119 -2 -4 40 -60 93 -124 l97
-115 119 0 119 0 0 90 0 90 -85 0 -85 0 0 55 0 55 85 0 85 0 0 90 0 90 -122
-1 -123 0 -90 -111z"/>
<path d="M6332 1998 c-17 -17 -15 -48 4 -55 15 -5 15 -7 0 -15 -9 -5 -16 -20
-16 -33 0 -13 7 -28 16 -33 15 -8 15 -10 0 -15 -18 -7 -21 -38 -5 -54 8 -8 7
-16 -2 -30 -24 -39 17 -73 49 -41 16 16 15 23 -4 42 -14 15 -14 17 0 32 20 19
20 23 1 44 -14 15 -14 18 0 30 8 7 15 17 15 23 0 6 -7 18 -15 27 -14 15 -14
18 0 30 19 16 19 25 -1 44 -19 19 -26 20 -42 4z"/>
<path d="M6623 2003 c-16 -6 -17 -45 -2 -60 8 -8 8 -13 0 -17 -6 -4 -11 -18
-11 -31 0 -13 5 -27 11 -31 8 -4 8 -9 0 -17 -15 -15 -14 -54 2 -61 10 -5 10
-7 0 -12 -19 -8 -16 -54 3 -61 18 -7 45 6 51 24 2 6 -3 18 -12 27 -15 15 -15
17 -1 32 20 19 20 28 1 44 -12 10 -12 15 0 34 13 19 13 25 0 43 -13 18 -13 22
0 33 19 16 19 25 -1 44 -16 17 -21 18 -41 9z"/>
<path d="M6905 1994 c-14 -14 -14 -19 -2 -38 13 -19 13 -25 1 -41 -12 -16 -12
-22 0 -39 11 -18 11 -24 -1 -42 -12 -19 -12 -24 2 -38 15 -15 15 -17 1 -32
-22 -21 -3 -56 27 -52 26 4 36 45 15 60 -10 7 -10 11 0 15 15 6 16 45 1 60 -8
8 -8 13 0 17 17 11 13 54 -5 64 -15 8 -15 10 0 15 21 8 21 53 0 61 -21 8 -20
8 -39 -10z"/>
<path d="M6767 1729 c-39 -22 -4 -79 35 -58 10 5 18 18 18 29 0 25 -30 41 -53
29z"/>
<path d="M6676 1715 c-8 -22 -8 -21 10 -39 21 -22 56 -3 52 27 -4 28 -52 37
-62 12z"/>
<path d="M6837 1723 c-14 -13 -7 -43 12 -53 15 -7 23 -6 35 6 19 19 20 26 4
42 -13 13 -41 16 -51 5z"/>
<path d="M6396 1594 c-12 -12 -13 -20 -6 -35 13 -23 48 -25 57 -3 6 15 7 15
19 0 19 -26 59 -17 59 13 0 34 -29 50 -52 29 -15 -14 -20 -14 -31 -2 -16 18
-27 18 -46 -2z"/>
<path d="M6550 1595 c-6 -8 -10 -22 -8 -32 4 -24 47 -24 62 0 9 15 7 21 -8 33
-25 18 -31 18 -46 -1z"/>
<path d="M6323 1544 c-3 -9 0 -26 7 -37 9 -15 10 -22 1 -25 -17 -6 -13 -52 5
-59 15 -5 15 -7 0 -15 -18 -10 -22 -54 -5 -60 9 -3 8 -10 -1 -25 -7 -11 -10
-28 -7 -37 8 -21 53 -21 61 0 8 21 8 20 -11 39 -16 16 -16 18 0 27 21 11 22
32 2 48 -14 12 -14 15 0 30 20 22 19 37 -2 48 -16 9 -16 11 0 27 20 20 21 27
5 43 -17 17 -48 15 -55 -4z"/>
<path d="M6613 1544 c-3 -9 0 -26 7 -37 9 -15 10 -22 1 -25 -17 -6 -13 -52 5
-59 15 -5 15 -7 0 -15 -18 -10 -22 -54 -5 -60 9 -3 8 -10 -1 -25 -25 -39 16
-73 48 -41 16 16 15 23 -4 42 -14 15 -14 17 0 32 20 19 20 28 1 44 -14 12 -14
15 0 30 19 21 19 25 -1 44 -14 15 -14 17 0 32 19 19 20 26 4 42 -17 17 -48 15
-55 -4z"/>
<path d="M6902 1548 c-16 -16 -15 -23 4 -42 14 -15 14 -17 -1 -32 -14 -14 -14
-19 -2 -38 12 -18 12 -24 0 -42 -12 -19 -12 -24 2 -38 15 -15 15 -17 1 -32
-19 -19 -20 -26 -4 -42 32 -32 73 2 48 41 -9 15 -10 22 -1 25 17 6 13 50 -5
60 -15 8 -15 10 0 15 18 7 22 53 5 59 -9 3 -8 10 1 25 25 39 -16 73 -48 41z"/>
<path d="M6681 1277 c-24 -29 17 -70 46 -46 8 7 13 22 11 33 -4 25 -40 33 -57
13z"/>
<path d="M6753 1274 c-8 -22 10 -49 32 -49 22 0 40 27 32 49 -8 21 -56 21 -64
0z"/>
<path d="M6837 1283 c-12 -11 -8 -40 7 -52 28 -23 68 17 45 45 -12 15 -41 19
-52 7z"/>
</g>
</svg>
