<?xml version="1.0" standalone="no"?>
<!DOCTYPE svg PUBLIC "-//W3C//DTD SVG 20010904//EN"
 "http://www.w3.org/TR/2001/REC-SVG-20010904/DTD/svg10.dtd">
<svg version="1.0" xmlns="http://www.w3.org/2000/svg"
 width="300.000000pt" height="300.000000pt" viewBox="0 0 300.000000 300.000000"
 preserveAspectRatio="xMidYMid meet">
<metadata>
Created by potrace 1.13, written by Peter Selinger 2001-2015
</metadata>
<g transform="translate(0.000000,300.000000) scale(0.100000,-0.100000)"
fill="#000000" stroke="none">
<path d="M1137 2932 c-26 -27 -27 -32 -27 -146 0 -117 0 -118 29 -147 36 -36
44 -36 70 -3 19 24 21 40 21 146 0 95 -4 126 -17 149 -22 36 -42 37 -76 1z"/>
<path d="M525 2687 c-10 -16 -14 -34 -10 -48 12 -37 181 -199 208 -199 43 0
60 22 53 67 -10 55 -144 191 -198 199 -31 5 -38 3 -53 -19z"/>
<path d="M1744 2704 c-6 -2 -47 -41 -92 -85 -62 -61 -83 -89 -88 -116 -8 -41
11 -63 54 -63 24 0 142 104 184 163 44 61 5 127 -58 101z"/>
<path d="M1044 2456 c-80 -30 -120 -55 -175 -113 -107 -111 -142 -245 -108
-406 15 -72 42 -124 70 -132 23 -8 24 -37 3 -96 -9 -27 -14 -67 -12 -103 l3
-59 -45 -31 c-64 -44 -87 -74 -117 -159 l-27 -74 23 -69 c43 -126 95 -171 235
-204 83 -19 118 -20 807 -20 763 0 771 0 862 47 51 26 107 85 149 157 39 66
42 76 42 146 0 65 -5 83 -32 136 -32 62 -115 150 -168 177 -16 8 -50 18 -76
22 -51 8 -61 16 -73 55 -13 42 -65 98 -109 116 -24 10 -69 18 -111 18 l-70 1
-11 45 c-37 149 -179 285 -334 319 -60 14 -170 14 -228 0 -109 -25 -207 -96
-276 -199 l-47 -70 -66 0 c-88 0 -170 -38 -238 -111 l-50 -53 -3 33 c-4 40 44
103 116 152 40 28 58 33 124 37 l78 5 35 52 c19 29 56 72 82 95 56 49 154 100
192 100 47 0 53 18 19 61 -101 125 -311 182 -464 125z"/>
<path d="M292 2090 c-12 -11 -26 -20 -32 -20 -5 0 -10 -11 -10 -24 0 -31 35
-38 202 -39 137 -1 164 7 152 47 -14 48 -38 56 -168 56 -108 0 -125 -2 -144
-20z"/>
<path d="M2202 901 c-15 -16 -40 -36 -57 -45 -16 -9 -79 -48 -140 -86 -60 -38
-127 -79 -147 -90 -37 -20 -56 -55 -45 -84 3 -8 58 -57 121 -110 154 -129 155
-121 -4 -277 -91 -89 -120 -124 -120 -144 0 -20 5 -25 25 -25 14 0 25 6 25 13
0 12 50 38 185 98 66 29 152 68 248 113 42 20 82 36 87 36 6 0 22 11 35 25 38
37 20 59 -126 155 -72 47 -135 93 -140 102 -15 28 -10 84 11 111 11 14 20 28
20 32 0 5 18 37 40 72 52 81 62 107 47 122 -18 18 -36 13 -65 -18z"/>
<path d="M839 841 c-60 -63 -109 -151 -109 -195 0 -43 30 -84 74 -101 36 -15
43 -15 82 0 37 14 44 22 64 73 31 79 40 240 16 265 -33 32 -66 21 -127 -42z"/>
<path d="M1424 848 c-61 -65 -85 -100 -108 -157 -16 -42 -16 -48 -1 -87 14
-36 23 -46 61 -60 42 -16 47 -16 83 0 60 27 80 73 87 197 7 125 -2 159 -44
159 -20 0 -41 -13 -78 -52z"/>
<path d="M1036 410 c-18 -17 -57 -65 -85 -107 -63 -95 -67 -134 -20 -188 28
-31 37 -35 79 -35 61 0 91 25 120 98 28 72 29 221 2 245 -27 25 -57 21 -96
-13z"/>
</g>
</svg>
