<?xml version="1.0" standalone="no"?>
<!DOCTYPE svg PUBLIC "-//W3C//DTD SVG 20010904//EN"
 "http://www.w3.org/TR/2001/REC-SVG-20010904/DTD/svg10.dtd">
<svg version="1.0" xmlns="http://www.w3.org/2000/svg"
 width="300.000000pt" height="300.000000pt" viewBox="0 0 300.000000 300.000000"
 preserveAspectRatio="xMidYMid meet">
<metadata>
Created by potrace 1.13, written by Peter Selinger 2001-2015
</metadata>
<g transform="translate(0.000000,300.000000) scale(0.100000,-0.100000)"
fill="#000000" stroke="none">
<path d="M1339 2890 c-37 -4 -79 -15 -95 -23 -16 -8 -41 -17 -56 -21 -42 -10
-145 -84 -211 -152 -59 -61 -73 -81 -102 -141 -8 -17 -20 -35 -26 -39 -6 -3
-52 -8 -103 -9 -131 -4 -230 -47 -322 -141 -86 -89 -134 -235 -119 -368 l6
-62 -33 -16 c-61 -29 -149 -119 -180 -183 -25 -53 -28 -71 -28 -156 0 -84 4
-105 27 -155 34 -75 111 -153 186 -187 35 -16 91 -30 145 -37 129 -16 353 -30
387 -24 17 3 401 6 855 8 550 2 845 6 885 14 92 17 161 57 245 141 102 103
130 170 130 310 0 111 -20 180 -73 260 -77 114 -168 168 -349 206 -23 4 -30
13 -39 50 -8 31 -28 63 -69 107 -47 52 -69 67 -121 86 -72 25 -108 27 -156 10
-42 -15 -50 -8 -69 68 -33 124 -132 269 -228 333 -21 14 -51 34 -65 43 -29 20
-68 38 -80 38 -5 0 -28 9 -52 19 -52 23 -194 33 -290 21z"/>
<path d="M1356 979 c-60 -67 -106 -145 -106 -181 0 -39 45 -95 82 -102 45 -8
88 5 110 35 40 55 66 267 36 297 -28 28 -65 14 -122 -49z"/>
<path d="M682 953 c-33 -27 -68 -62 -77 -78 -16 -29 -16 -36 0 -110 10 -44 22
-86 28 -92 20 -26 53 -12 121 53 54 51 67 69 63 87 -3 12 -13 56 -22 97 -14
66 -26 89 -46 90 -3 0 -34 -21 -67 -47z m62 -94 c7 -43 -1 -64 -33 -93 -32
-29 -51 -14 -51 41 0 37 5 53 26 74 33 35 50 28 58 -22z"/>
<path d="M2171 950 c-88 -73 -95 -87 -83 -158 13 -73 36 -130 56 -138 19 -7
130 86 150 125 15 28 10 81 -14 159 -21 69 -39 70 -109 12z m59 -69 c18 -34
11 -75 -16 -104 -30 -33 -44 -31 -62 6 -15 31 -10 54 19 91 24 31 44 33 59 7z"/>
<path d="M1067 405 c-31 -25 -65 -58 -77 -75 -21 -29 -21 -31 -5 -102 24 -104
31 -118 59 -118 34 0 156 119 156 151 0 25 -35 163 -45 179 -12 19 -33 10 -88
-35z m53 -71 c17 -45 12 -79 -18 -107 -32 -31 -47 -34 -56 -11 -13 34 -5 78
20 111 30 40 41 41 54 7z"/>
<path d="M1874 403 c-36 -34 -75 -84 -111 -147 -15 -25 -17 -75 -3 -110 21
-55 111 -73 165 -32 36 28 42 48 55 176 14 148 -24 188 -106 113z"/>
</g>
</svg>
