<?xml version="1.0" standalone="no"?>
<!DOCTYPE svg PUBLIC "-//W3C//DTD SVG 20010904//EN"
 "http://www.w3.org/TR/2001/REC-SVG-20010904/DTD/svg10.dtd">
<svg version="1.0" xmlns="http://www.w3.org/2000/svg"
 width="300.000000pt" height="300.000000pt" viewBox="0 0 300.000000 300.000000"
 preserveAspectRatio="xMidYMid meet">
<metadata>
Created by potrace 1.13, written by Peter Selinger 2001-2015
</metadata>
<g transform="translate(0.000000,300.000000) scale(0.100000,-0.100000)"
fill="#000000" stroke="none">
<path d="M1129 2941 c-29 -29 -29 -30 -29 -151 0 -121 0 -122 29 -151 34 -34
56 -37 71 -10 13 25 13 286 0 310 -17 32 -40 33 -71 2z"/>
<path d="M496 2684 c-18 -47 -6 -67 90 -161 54 -52 105 -93 116 -93 39 0 58
19 58 59 0 34 -8 45 -89 124 -81 80 -92 87 -129 87 -27 0 -42 -5 -46 -16z"/>
<path d="M1735 2690 c-11 -4 -52 -41 -91 -81 -83 -87 -101 -131 -64 -161 12
-10 29 -18 38 -18 8 0 59 44 113 97 101 98 118 130 87 161 -14 14 -53 15 -83
2z"/>
<path d="M1021 2444 c-120 -46 -201 -122 -257 -239 -27 -56 -29 -68 -28 -180
0 -111 2 -125 29 -182 16 -35 34 -63 41 -63 6 0 24 25 40 55 48 97 149 163
263 173 75 7 76 8 93 43 37 79 218 209 291 209 14 0 30 6 36 14 9 11 -3 27
-60 80 -39 36 -85 70 -103 75 -17 5 -49 17 -71 25 -65 24 -197 20 -274 -10z"/>
<path d="M1525 2213 c-49 -12 -149 -68 -190 -106 -25 -23 -65 -71 -88 -107
-39 -60 -45 -65 -75 -62 -62 5 -154 -16 -196 -45 -51 -35 -106 -87 -106 -100
0 -5 -8 -18 -19 -27 -10 -9 -24 -45 -32 -79 -13 -65 -14 -81 -4 -134 5 -29 2
-34 -47 -67 -66 -44 -98 -84 -126 -159 -27 -73 -27 -87 0 -167 37 -111 116
-177 243 -201 61 -12 1564 -12 1615 0 86 20 189 98 236 179 25 43 27 56 28
158 1 103 -1 114 -28 165 -16 30 -38 65 -50 77 -38 43 -110 85 -181 106 -63
20 -70 25 -79 55 -11 38 -84 117 -121 131 -15 6 -60 10 -100 10 l-74 0 -10 33
c-32 106 -72 169 -153 242 -29 26 -78 59 -108 73 -49 23 -70 26 -185 28 -71 1
-139 0 -150 -3z"/>
<path d="M272 2084 c-12 -8 -27 -24 -32 -35 -9 -16 -5 -24 22 -49 32 -30 33
-30 153 -30 120 1 134 4 163 41 18 24 -3 65 -41 79 -49 17 -238 13 -265 -6z"/>
<path d="M2457 792 c-46 -31 -98 -94 -129 -159 -25 -53 -28 -65 -17 -85 34
-67 82 -88 141 -63 44 18 47 21 64 93 21 90 18 184 -6 210 -25 26 -19 26 -53
4z"/>
<path d="M914 787 c-26 -14 -99 -100 -120 -141 -18 -33 -20 -105 -5 -135 6
-11 29 -26 51 -32 54 -16 95 1 121 52 34 67 44 222 17 257 -13 15 -37 15 -64
-1z"/>
<path d="M1434 790 c-22 -9 -75 -67 -119 -130 -26 -38 -35 -94 -21 -137 4 -11
24 -28 46 -38 35 -16 44 -16 77 -4 60 23 83 79 83 200 0 87 -2 99 -19 109 -22
11 -19 11 -47 0z"/>
<path d="M1944 790 c-28 -11 -106 -107 -134 -165 -20 -42 -21 -49 -8 -83 17
-46 71 -79 113 -68 40 10 81 58 89 103 3 21 6 74 6 119 0 99 -12 116 -66 94z"/>
<path d="M1029 341 c-59 -60 -109 -144 -109 -181 0 -33 42 -89 73 -95 97 -22
147 51 147 217 0 73 -16 118 -43 118 -6 0 -37 -26 -68 -59z"/>
<path d="M1553 355 c-35 -30 -62 -67 -87 -119 l-37 -75 20 -45 c16 -38 25 -46
55 -51 38 -8 83 0 103 17 44 36 71 260 36 290 -33 28 -40 27 -90 -17z"/>
<path d="M2092 376 c-71 -52 -132 -149 -134 -210 -1 -59 22 -93 66 -102 59
-10 88 6 119 66 25 50 27 63 25 149 -3 82 -6 95 -24 107 -18 12 -24 11 -52
-10z"/>
</g>
</svg>
