<?xml version="1.0" standalone="no"?>
<!DOCTYPE svg PUBLIC "-//W3C//DTD SVG 20010904//EN"
 "http://www.w3.org/TR/2001/REC-SVG-20010904/DTD/svg10.dtd">
<svg version="1.0" xmlns="http://www.w3.org/2000/svg"
 width="300.000000pt" height="300.000000pt" viewBox="0 0 300.000000 300.000000"
 preserveAspectRatio="xMidYMid meet">
<metadata>
Created by potrace 1.13, written by Peter Selinger 2001-2015
</metadata>
<g transform="translate(0.000000,300.000000) scale(0.100000,-0.100000)"
fill="#000000" stroke="none">
<path d="M1300 2880 c-61 -15 -134 -43 -151 -57 -8 -7 -20 -13 -26 -13 -17 0
-115 -81 -163 -135 -55 -62 -85 -103 -94 -133 -11 -35 -45 -52 -86 -43 -71 14
-205 -22 -288 -79 -130 -89 -200 -221 -203 -380 -1 -41 0 -79 1 -85 6 -23 -2
-34 -42 -61 -133 -88 -198 -194 -198 -325 0 -193 110 -330 306 -381 l89 -23
1055 0 1055 0 70 25 c87 30 139 65 203 134 72 79 98 130 113 219 36 213 -65
411 -255 501 -39 19 -94 37 -121 41 -72 11 -84 20 -92 68 -5 31 -19 55 -56 95
-64 67 -98 87 -173 103 -45 9 -68 9 -92 1 -18 -6 -39 -9 -48 -5 -19 7 -41 50
-54 106 -19 89 -111 220 -204 295 -129 102 -216 133 -386 138 -69 1 -141 -1
-160 -6z"/>
<path d="M1068 940 c-65 -69 -108 -146 -108 -196 0 -73 86 -123 160 -91 30 12
38 23 57 78 31 91 35 226 7 253 -28 29 -56 18 -116 -44z"/>
<path d="M1641 948 c-100 -106 -132 -175 -110 -240 11 -33 21 -44 56 -59 42
-18 46 -18 80 -1 69 33 91 89 92 240 1 129 -35 147 -118 60z"/>
<path d="M1280 534 c-28 -18 -94 -99 -127 -157 -33 -57 -31 -116 6 -156 24
-26 37 -31 74 -31 58 0 89 26 117 98 28 75 29 213 0 242 -24 24 -37 25 -70 4z"/>
</g>
</svg>
