<?xml version="1.0" standalone="no"?>
<!DOCTYPE svg PUBLIC "-//W3C//DTD SVG 20010904//EN"
 "http://www.w3.org/TR/2001/REC-SVG-20010904/DTD/svg10.dtd">
<svg version="1.0" xmlns="http://www.w3.org/2000/svg"
 width="300.000000pt" height="300.000000pt" viewBox="0 0 300.000000 300.000000"
 preserveAspectRatio="xMidYMid meet">
<metadata>
Created by potrace 1.13, written by Peter Selinger 2001-2015
</metadata>
<g transform="translate(0.000000,300.000000) scale(0.100000,-0.100000)"
fill="#000000" stroke="none">
<path d="M1320 2945 c-176 -28 -344 -149 -436 -313 -36 -63 -64 -82 -100 -68
-27 10 -173 -14 -213 -35 -19 -10 -41 -19 -47 -19 -25 0 -142 -126 -171 -185
-36 -73 -47 -123 -47 -235 -1 -47 -5 -91 -9 -98 -5 -7 -23 -18 -40 -26 -48
-20 -124 -101 -158 -167 -26 -53 -29 -68 -29 -158 0 -82 4 -107 23 -148 52
-113 135 -184 252 -215 114 -30 290 -34 1285 -28 l945 6 53 22 c135 57 212
130 275 264 24 51 27 68 27 170 0 94 -3 120 -20 151 -11 20 -20 41 -20 46 0
38 -127 172 -190 203 -77 37 -140 58 -172 58 -38 0 -58 15 -58 43 0 24 -47
104 -80 137 -57 58 -98 73 -210 79 l-105 6 -14 45 c-33 109 -94 214 -165 285
-75 75 -142 125 -167 125 -8 0 -25 7 -37 16 -58 40 -244 60 -372 39z"/>
<path d="M1601 1100 c-13 -11 -29 -20 -36 -20 -7 0 -18 -7 -25 -16 -8 -8 -27
-22 -44 -30 -17 -8 -62 -34 -101 -59 -38 -24 -86 -54 -105 -65 -19 -11 -48
-29 -65 -40 -16 -11 -47 -29 -67 -40 -67 -36 -77 -89 -25 -142 17 -18 81 -73
140 -121 59 -48 112 -98 116 -110 5 -12 4 -34 -1 -48 -5 -14 -76 -92 -158
-174 -83 -82 -150 -152 -150 -156 0 -3 6 -12 14 -18 10 -8 28 -4 77 20 35 17
82 39 104 49 22 9 60 26 85 38 25 11 56 24 70 28 14 4 36 15 49 25 13 11 30
19 38 19 8 0 31 9 51 19 54 28 202 97 239 111 38 14 60 58 44 88 -6 11 -34 35
-63 54 -294 193 -288 188 -288 250 0 29 19 71 80 179 45 78 80 149 78 158 -5
23 -30 24 -57 1z"/>
</g>
</svg>
