<?xml version="1.0" standalone="no"?>
<!DOCTYPE svg PUBLIC "-//W3C//DTD SVG 20010904//EN"
 "http://www.w3.org/TR/2001/REC-SVG-20010904/DTD/svg10.dtd">
<svg version="1.0" xmlns="http://www.w3.org/2000/svg"
 width="300.000000pt" height="300.000000pt" viewBox="0 0 300.000000 300.000000"
 preserveAspectRatio="xMidYMid meet">
<metadata>
Created by potrace 1.13, written by Peter Selinger 2001-2015
</metadata>
<g transform="translate(0.000000,300.000000) scale(0.100000,-0.100000)"
fill="#000000" stroke="none">
<path d="M1290 2819 c-65 -17 -136 -47 -217 -93 -58 -33 -196 -198 -209 -251
-7 -28 -8 -28 -80 -25 -68 2 -201 -26 -232 -50 -13 -11 -30 -20 -37 -20 -21 0
-135 -123 -162 -174 -37 -75 -55 -168 -48 -253 5 -68 5 -72 -21 -92 -15 -12
-32 -21 -39 -21 -24 0 -112 -97 -143 -158 -30 -58 -32 -70 -32 -161 0 -87 3
-105 29 -162 53 -116 141 -180 291 -212 92 -20 125 -20 1120 -18 891 2 1032 4
1075 18 160 49 264 140 322 283 19 45 23 74 23 158 0 88 -4 111 -26 164 -29
69 -52 104 -109 163 -54 56 -188 125 -243 125 -58 0 -71 10 -87 65 -14 50 -93
155 -116 155 -6 0 -23 10 -39 21 -24 19 -44 22 -130 24 -115 1 -113 0 -131 85
-6 30 -16 62 -23 70 -6 8 -22 36 -35 62 -24 49 -132 167 -186 204 -145 101
-348 137 -515 93z"/>
<path d="M615 951 c-25 -10 -104 -111 -134 -168 -26 -52 -26 -73 -1 -123 16
-31 27 -40 56 -46 64 -12 105 5 133 55 21 38 25 62 29 153 5 116 -2 139 -42
137 -11 0 -30 -4 -41 -8z"/>
<path d="M1139 920 c-50 -52 -93 -116 -110 -163 -11 -32 -11 -43 2 -80 9 -24
26 -47 40 -54 36 -19 93 -16 121 7 46 35 59 80 60 199 0 60 -2 114 -6 120 -4
6 -21 11 -38 11 -23 0 -41 -10 -69 -40z"/>
<path d="M1710 934 c-17 -15 -52 -56 -77 -91 -38 -53 -47 -76 -51 -117 -4 -46
-1 -55 26 -84 25 -27 37 -32 77 -32 39 0 50 5 76 33 16 17 31 41 34 52 2 11 9
48 16 82 13 69 8 145 -11 168 -19 23 -55 18 -90 -11z"/>
<path d="M2290 953 c-31 -13 -106 -108 -149 -190 -20 -39 -13 -77 23 -116 28
-31 40 -37 75 -37 82 0 128 79 138 242 4 57 2 69 -16 87 -21 21 -42 25 -71 14z"/>
<path d="M1895 508 c-42 -33 -137 -166 -145 -205 -12 -51 5 -98 44 -122 47
-29 85 -27 127 9 33 26 37 37 49 107 21 123 12 201 -24 225 -16 11 -21 10 -51
-14z"/>
<path d="M769 497 c-37 -31 -95 -111 -126 -171 l-26 -50 22 -41 c53 -100 159
-98 203 3 29 65 38 221 14 257 -20 31 -52 32 -87 2z"/>
<path d="M1313 483 c-22 -21 -57 -65 -79 -98 -33 -51 -39 -68 -39 -113 0 -50
3 -57 35 -83 50 -42 90 -39 138 9 45 45 52 73 52 208 0 57 -4 94 -12 102 -21
21 -54 13 -95 -25z"/>
</g>
</svg>
