<?xml version="1.0" standalone="no"?>
<!DOCTYPE svg PUBLIC "-//W3C//DTD SVG 20010904//EN"
 "http://www.w3.org/TR/2001/REC-SVG-20010904/DTD/svg10.dtd">
<svg version="1.0" xmlns="http://www.w3.org/2000/svg"
 width="300.000000pt" height="300.000000pt" viewBox="0 0 300.000000 300.000000"
 preserveAspectRatio="xMidYMid meet">
<metadata>
Created by potrace 1.13, written by Peter Selinger 2001-2015
</metadata>
<g transform="translate(0.000000,300.000000) scale(0.100000,-0.100000)"
fill="#000000" stroke="none">
<path d="M1459 2393 c-14 -16 -30 -40 -37 -55 -15 -37 -28 -35 -54 7 -24 42
-64 65 -112 65 -37 0 -36 2 -51 -73 -2 -11 36 -67 103 -150 l107 -132 5 -156
c6 -174 4 -189 -15 -189 -8 0 -65 52 -128 116 l-115 116 -5 67 c-3 36 -12 112
-20 169 -12 89 -17 106 -42 132 -16 17 -31 30 -34 30 -3 0 -21 -14 -40 -32
-32 -30 -33 -33 -29 -92 3 -34 3 -67 1 -73 -6 -18 -38 -16 -53 2 -16 19 -79
10 -97 -13 -17 -21 -16 -57 2 -76 8 -8 15 -24 15 -35 0 -20 -4 -21 -67 -15
-67 6 -69 5 -107 -29 l-38 -34 36 -41 c40 -44 45 -45 267 -60 l105 -7 132
-133 c73 -73 130 -137 127 -142 -4 -6 -81 -10 -180 -10 l-173 0 -44 33 c-24
18 -86 68 -138 110 -72 59 -101 77 -125 77 -41 0 -75 -25 -75 -56 0 -28 26
-84 39 -84 12 0 71 -58 71 -70 0 -6 -6 -10 -12 -11 -7 -1 -20 -2 -29 -3 -10 0
-31 -13 -48 -29 -26 -22 -30 -31 -21 -46 14 -27 59 -61 81 -61 30 0 22 -20
-31 -76 -37 -39 -50 -61 -50 -82 0 -36 13 -47 63 -56 35 -7 44 -3 90 33 29 22
75 60 102 86 28 25 69 57 91 71 40 24 47 24 204 22 123 -2 164 -6 168 -16 5
-15 -190 -217 -228 -237 -26 -13 -205 -35 -290 -35 -39 0 -51 -5 -78 -33 -40
-41 -40 -58 0 -92 30 -26 36 -27 100 -20 37 3 68 3 68 0 0 -4 -7 -31 -16 -61
-22 -76 -12 -87 75 -82 l66 3 1 -55 c0 -74 0 -74 29 -108 29 -34 51 -33 85 3
27 29 50 146 50 263 l0 84 113 116 c61 65 120 118 130 120 16 3 17 -10 17
-162 l0 -165 -31 -33 c-17 -18 -41 -49 -54 -68 -13 -19 -46 -60 -74 -90 -46
-50 -51 -60 -51 -102 0 -52 15 -68 66 -68 21 0 41 14 77 52 46 49 51 52 61 34
24 -41 69 -86 86 -86 17 0 62 45 86 86 10 18 15 15 61 -34 36 -38 56 -52 77
-52 51 0 66 16 66 68 0 42 -5 52 -51 102 -28 30 -61 71 -74 90 -13 19 -37 50
-54 68 l-31 33 0 174 c0 110 4 176 10 180 6 4 64 -47 128 -112 l117 -118 7
-65 c29 -278 28 -273 61 -307 17 -18 36 -33 43 -33 7 0 24 14 39 32 23 27 26
39 25 92 -1 34 -2 67 -1 74 1 17 36 15 52 -4 16 -19 87 -14 100 8 14 21 10 75
-6 88 -8 7 -15 21 -15 32 0 19 5 20 68 13 65 -6 70 -5 100 20 39 33 40 53 5
87 -25 24 -42 28 -168 42 -214 24 -193 15 -316 139 -60 60 -109 116 -109 124
0 10 32 13 158 13 157 0 158 0 203 -29 24 -15 64 -47 89 -70 24 -23 68 -60 96
-82 47 -36 56 -40 91 -33 50 9 63 20 63 56 0 21 -13 43 -50 82 -53 56 -61 76
-31 76 22 0 67 34 81 61 9 15 5 24 -21 46 -17 16 -38 29 -48 29 -9 1 -22 2
-28 3 -7 1 -13 5 -13 11 0 12 59 70 71 70 13 0 39 56 39 84 0 31 -34 56 -76
56 -25 0 -52 -16 -121 -73 -48 -40 -110 -90 -136 -110 l-49 -37 -164 0 c-128
0 -164 3 -164 13 0 17 253 267 271 267 8 1 74 5 147 10 145 10 184 23 212 73
14 26 14 28 -18 57 -30 27 -40 30 -98 30 -69 0 -72 3 -54 57 7 20 8 38 1 56
-9 24 -16 27 -56 27 -26 0 -56 -5 -67 -11 -33 -18 -44 3 -30 56 15 55 -1 104
-42 130 -24 16 -27 16 -55 -7 -38 -29 -38 -29 -51 -178 -18 -201 -21 -207
-154 -339 -63 -63 -119 -110 -125 -106 -7 4 -11 68 -11 185 l0 178 109 136
c68 84 108 142 106 153 -15 75 -14 73 -51 73 -48 0 -88 -23 -112 -65 -26 -42
-39 -44 -54 -7 -16 37 -58 82 -78 82 -9 0 -28 -12 -41 -27z"/>
</g>
</svg>
