<?xml version="1.0" standalone="no"?>
<!DOCTYPE svg PUBLIC "-//W3C//DTD SVG 20010904//EN"
 "http://www.w3.org/TR/2001/REC-SVG-20010904/DTD/svg10.dtd">
<svg version="1.0" xmlns="http://www.w3.org/2000/svg"
 width="300.000000pt" height="300.000000pt" viewBox="0 0 300.000000 300.000000"
 preserveAspectRatio="xMidYMid meet">
<metadata>
Created by potrace 1.13, written by Peter Selinger 2001-2015
</metadata>
<g transform="translate(0.000000,300.000000) scale(0.100000,-0.100000)"
fill="#000000" stroke="none">
<path d="M1320 2930 c-62 -9 -133 -36 -199 -73 -98 -56 -219 -185 -255 -271
l-15 -36 -83 0 c-154 -1 -257 -44 -349 -148 -88 -100 -126 -215 -116 -351 l6
-80 -34 -11 c-50 -16 -148 -119 -180 -188 -24 -50 -27 -69 -27 -158 -1 -93 2
-105 28 -150 49 -84 74 -117 102 -136 146 -97 159 -98 1172 -97 448 1 907 4
1020 8 203 6 206 7 270 37 36 17 84 48 108 69 46 40 122 137 122 155 0 6 9 29
21 52 19 36 21 54 17 157 -4 112 -5 119 -42 186 -46 86 -133 176 -200 209 -28
13 -86 32 -128 41 -77 17 -78 17 -88 56 -17 62 -108 170 -155 185 -11 3 -35
13 -54 21 -26 12 -52 14 -106 9 -84 -8 -89 -4 -105 69 -28 124 -166 303 -284
367 -108 59 -172 78 -286 82 -58 3 -130 1 -160 -4z"/>
<path d="M696 1125 c-3 -9 -6 -48 -6 -86 0 -51 -4 -69 -13 -69 -8 0 -37 25
-67 55 -30 32 -59 55 -69 53 -31 -6 -23 -39 23 -88 25 -27 46 -54 46 -60 0 -6
-31 -10 -80 -10 -64 0 -82 -3 -87 -16 -10 -26 10 -34 84 -35 106 -1 109 -8 35
-80 -63 -62 -75 -91 -37 -97 13 -2 41 18 82 58 35 33 67 60 72 60 6 0 12 -41
13 -92 3 -82 5 -93 22 -96 28 -6 35 15 30 83 -7 90 9 98 71 35 51 -52 81 -62
92 -33 5 12 -11 33 -56 75 -83 78 -78 88 38 88 91 0 113 8 91 35 -9 11 -35 15
-96 15 -103 0 -106 8 -28 79 58 53 67 83 28 89 -15 2 -35 -12 -67 -47 -25 -28
-50 -51 -56 -51 -14 0 -25 43 -17 67 14 46 -31 111 -48 68z"/>
<path d="M2096 1104 c-4 -14 -4 -39 -1 -55 8 -34 -2 -69 -18 -69 -6 0 -33 23
-59 50 -48 50 -81 63 -92 35 -3 -10 13 -36 45 -71 27 -30 47 -59 44 -64 -4 -6
-39 -10 -79 -10 -52 0 -77 -4 -86 -15 -21 -25 -1 -35 75 -35 77 0 105 -6 105
-22 0 -5 -25 -32 -55 -60 -62 -56 -75 -98 -31 -98 18 0 39 16 72 55 69 80 88
71 79 -35 -6 -65 1 -90 24 -90 31 0 39 19 34 84 -5 53 -3 64 12 70 12 4 30 -7
63 -39 36 -36 51 -45 69 -40 37 9 27 33 -39 96 -34 32 -59 62 -54 66 4 4 47
10 94 13 79 5 87 7 87 25 0 18 -8 20 -82 23 -57 2 -83 7 -83 15 0 7 25 38 56
70 46 48 54 61 44 72 -21 25 -42 17 -91 -31 -61 -60 -77 -55 -81 23 -3 50 -6
58 -24 61 -16 2 -23 -4 -28 -24z"/>
<path d="M1414 1080 c-27 -11 -101 -95 -125 -142 -10 -20 -23 -39 -29 -43 -19
-11 -11 -81 12 -111 31 -41 37 -44 89 -44 37 0 50 5 71 28 53 56 79 261 38
302 -22 22 -25 23 -56 10z"/>
<path d="M1240 570 c-11 -7 -15 -28 -15 -76 0 -46 -4 -69 -13 -72 -7 -2 -35
19 -63 47 -50 50 -72 61 -84 40 -13 -20 5 -55 44 -84 43 -32 52 -54 24 -56
-10 0 -46 -1 -80 -2 -69 -2 -94 -16 -73 -42 9 -11 32 -15 90 -15 42 0 80 -3
84 -7 3 -4 -21 -35 -55 -69 -40 -40 -60 -68 -57 -80 7 -37 38 -27 94 30 31 31
62 56 69 56 19 0 29 -41 22 -98 -6 -59 -1 -72 28 -72 30 0 35 16 28 84 -5 47
-3 57 12 62 13 5 29 -5 61 -39 47 -51 68 -58 84 -28 8 17 1 28 -50 79 -33 32
-60 64 -60 70 0 8 26 12 79 12 88 0 111 5 111 26 0 22 -49 36 -105 31 -93 -8
-97 6 -18 78 41 37 55 56 50 68 -12 32 -52 19 -96 -29 -35 -39 -44 -44 -57
-33 -12 10 -14 23 -9 55 4 31 2 46 -10 58 -19 19 -16 18 -35 6z"/>
<path d="M1881 455 c-21 -20 -60 -66 -85 -103 -46 -68 -58 -119 -40 -166 12
-30 72 -59 109 -52 62 12 92 47 104 124 19 112 18 174 -2 205 -23 36 -39 34
-86 -8z"/>
</g>
</svg>
