<?xml version="1.0" standalone="no"?>
<!DOCTYPE svg PUBLIC "-//W3C//DTD SVG 20010904//EN"
 "http://www.w3.org/TR/2001/REC-SVG-20010904/DTD/svg10.dtd">
<svg version="1.0" xmlns="http://www.w3.org/2000/svg"
 width="300.000000pt" height="300.000000pt" viewBox="0 0 300.000000 300.000000"
 preserveAspectRatio="xMidYMid meet">
<metadata>
Created by potrace 1.13, written by Peter Selinger 2001-2015
</metadata>
<g transform="translate(0.000000,300.000000) scale(0.100000,-0.100000)"
fill="#000000" stroke="none">
<path d="M1134 2959 c-17 -18 -19 -37 -19 -144 0 -117 1 -125 24 -149 59 -63
91 -11 91 144 0 119 -16 170 -53 170 -13 0 -32 -9 -43 -21z"/>
<path d="M530 2709 c-20 -37 -1 -73 84 -158 75 -74 86 -82 116 -79 18 2 37 10
43 19 19 30 -4 70 -89 154 -68 67 -92 85 -115 85 -18 0 -32 -7 -39 -21z"/>
<path d="M1654 2648 c-109 -109 -123 -168 -44 -176 29 -3 41 5 107 70 101 99
121 139 87 172 -33 34 -64 20 -150 -66z"/>
<path d="M1030 2476 c-68 -26 -125 -63 -166 -107 -92 -101 -138 -245 -115
-364 13 -69 45 -158 59 -163 18 -6 52 18 52 37 0 30 81 109 144 141 46 23 73
30 118 30 56 0 58 1 82 39 59 93 220 211 288 211 13 0 29 5 36 12 10 10 1 24
-40 65 -29 29 -57 53 -62 53 -5 0 -17 6 -25 14 -9 8 -44 24 -78 35 -85 28
-215 27 -293 -3z"/>
<path d="M1550 2256 c-30 -7 -76 -23 -102 -35 -60 -28 -152 -112 -195 -178
-35 -56 -36 -56 -151 -67 -94 -9 -208 -91 -251 -178 -16 -35 -21 -63 -21 -129
0 -86 -15 -129 -44 -129 -19 0 -80 -60 -107 -105 -21 -35 -24 -52 -24 -135 0
-93 1 -96 36 -145 53 -74 116 -114 192 -122 108 -11 107 -9 107 -108 0 -99
-10 -107 -56 -45 -29 40 -63 58 -83 45 -19 -11 -12 -34 25 -75 20 -21 33 -43
30 -49 -3 -5 -33 -9 -67 -8 -41 0 -64 -4 -69 -14 -16 -25 10 -39 76 -39 34 0
66 -5 69 -11 4 -5 -16 -35 -45 -65 -28 -30 -50 -60 -47 -67 9 -29 39 -16 93
42 32 33 61 58 66 55 4 -3 8 -38 8 -78 0 -49 4 -77 13 -85 23 -18 37 9 37 70
0 32 5 61 11 65 6 3 30 -14 54 -41 45 -48 77 -57 83 -21 3 11 -15 36 -48 68
-29 27 -48 54 -44 58 5 5 41 10 79 12 64 3 70 5 73 25 4 26 0 27 -89 23 -31
-1 -59 3 -63 8 -3 5 19 36 49 68 58 63 63 72 41 80 -21 8 -68 -21 -91 -55 -32
-50 -49 -37 -53 39 -2 35 -8 70 -14 77 -8 11 106 13 615 13 l626 0 -10 -32
c-5 -18 -7 -45 -3 -60 7 -34 -3 -68 -20 -68 -8 0 -26 16 -41 36 -19 24 -33 34
-48 32 -34 -5 -32 -36 3 -73 46 -48 36 -65 -34 -62 -58 2 -83 -11 -73 -37 5
-12 22 -16 76 -16 38 0 73 -5 76 -10 4 -6 -19 -35 -49 -66 -61 -59 -70 -84
-32 -84 17 0 40 17 75 57 28 31 54 53 58 49 5 -4 8 -39 9 -77 1 -76 13 -101
39 -79 10 8 15 30 15 71 0 32 4 61 10 64 5 3 32 -15 59 -40 51 -48 83 -55 89
-21 3 12 -14 35 -48 66 -29 27 -49 53 -46 59 4 6 35 11 69 11 68 0 93 10 84
33 -7 17 -50 27 -93 20 -17 -3 -40 -1 -49 4 -15 9 -11 17 34 67 29 32 50 63
48 69 -8 25 -36 16 -83 -28 -27 -25 -55 -45 -61 -45 -9 0 -13 19 -13 64 0 35
-3 71 -6 80 -5 14 4 16 67 16 139 0 230 41 301 135 49 65 68 123 68 209 0 86
-15 136 -56 196 -53 75 -121 120 -230 149 -35 9 -43 17 -65 63 -16 36 -38 62
-66 82 -38 26 -51 29 -122 30 -44 1 -81 3 -84 6 -2 3 -12 31 -21 63 -34 119
-124 217 -256 279 -69 33 -207 44 -290 24z"/>
<path d="M296 2119 c-33 -26 -34 -62 -2 -77 35 -16 266 -19 294 -3 29 16 28
39 -5 73 -26 28 -29 28 -144 28 -103 0 -119 -2 -143 -21z"/>
<path d="M1633 928 c-16 -13 -41 -36 -54 -53 -89 -110 -101 -169 -46 -223 54
-53 114 -38 154 37 20 38 23 59 23 142 0 87 -2 99 -19 109 -25 13 -22 14 -58
-12z"/>
<path d="M1483 468 c-4 -7 -6 -37 -4 -65 4 -67 -12 -69 -74 -12 -73 67 -109
23 -40 -48 19 -20 35 -40 35 -44 0 -5 -33 -9 -72 -11 -62 -3 -73 -6 -76 -22
-6 -27 16 -37 78 -35 99 3 102 -4 35 -63 -30 -26 -45 -48 -45 -64 0 -38 31
-30 77 21 29 32 48 45 67 45 21 0 26 -4 22 -17 -2 -10 -6 -38 -8 -63 -3 -42
-1 -45 22 -45 23 0 25 3 25 50 0 43 3 50 21 53 15 2 33 -10 57 -39 39 -45 67
-47 67 -5 0 16 -15 37 -45 64 -68 60 -64 65 40 63 67 -2 89 7 83 35 -3 16 -15
20 -81 24 -42 3 -78 9 -78 13 -1 5 17 28 38 50 48 51 57 72 37 88 -11 9 -23 3
-64 -35 -61 -57 -85 -54 -77 10 5 52 -19 84 -40 52z"/>
<path d="M2037 340 c-31 -34 -65 -86 -77 -116 -22 -53 -22 -54 -3 -86 10 -18
34 -41 52 -52 33 -19 34 -19 68 0 48 25 58 44 79 150 17 89 17 91 -2 125 -31
53 -53 49 -117 -21z"/>
</g>
</svg>
