<?xml version="1.0" standalone="no"?>
<!DOCTYPE svg PUBLIC "-//W3C//DTD SVG 20010904//EN"
 "http://www.w3.org/TR/2001/REC-SVG-20010904/DTD/svg10.dtd">
<svg version="1.0" xmlns="http://www.w3.org/2000/svg"
 width="300.000000pt" height="300.000000pt" viewBox="0 0 300.000000 300.000000"
 preserveAspectRatio="xMidYMid meet">
<metadata>
Created by potrace 1.13, written by Peter Selinger 2001-2015
</metadata>
<g transform="translate(0.000000,300.000000) scale(0.100000,-0.100000)"
fill="#000000" stroke="none">
<path d="M980 2290 c-137 -33 -267 -126 -318 -227 -29 -55 -39 -61 -107 -61
-143 0 -284 -106 -325 -242 -7 -25 -12 -77 -12 -117 l1 -72 -53 -36 c-116 -77
-157 -203 -111 -339 25 -75 102 -148 173 -166 26 -6 65 -16 87 -22 28 -8 265
-11 815 -9 771 2 775 2 830 24 115 46 180 111 228 227 62 155 -21 345 -191
435 -26 14 -63 25 -82 25 -41 0 -61 19 -75 68 -5 21 -22 50 -37 64 -41 39
-131 69 -194 66 -51 -3 -53 -2 -62 27 -52 165 -146 264 -322 340 -45 20 -190
29 -245 15z"/>
<path d="M2137 1822 c-25 -27 -22 -60 6 -67 12 -3 137 -4 277 -3 l255 3 3 33
c3 27 -1 34 -23 42 -15 6 -130 10 -264 10 -218 0 -239 -2 -254 -18z"/>
<path d="M2323 1620 c-29 -12 -31 -55 -4 -70 27 -14 585 -14 612 0 29 16 25
58 -7 70 -32 13 -571 12 -601 0z"/>
<path d="M2396 1404 c-9 -8 -16 -22 -16 -29 0 -7 7 -21 16 -29 13 -13 44 -16
185 -16 156 0 171 2 189 20 25 25 25 46 1 60 -11 6 -92 10 -190 10 -141 0
-172 -3 -185 -16z"/>
</g>
</svg>
