<?xml version="1.0" standalone="no"?>
<!DOCTYPE svg PUBLIC "-//W3C//DTD SVG 20010904//EN"
 "http://www.w3.org/TR/2001/REC-SVG-20010904/DTD/svg10.dtd">
<svg version="1.0" xmlns="http://www.w3.org/2000/svg"
 width="300.000000pt" height="300.000000pt" viewBox="0 0 300.000000 300.000000"
 preserveAspectRatio="xMidYMid meet">
<metadata>
Created by potrace 1.13, written by Peter Selinger 2001-2015
</metadata>
<g transform="translate(0.000000,300.000000) scale(0.100000,-0.100000)"
fill="#000000" stroke="none">
<path d="M1260 2396 c-41 -13 -88 -31 -105 -40 -16 -9 -34 -16 -38 -16 -4 0
-38 -24 -75 -54 -73 -59 -161 -162 -181 -213 -21 -52 -35 -58 -160 -64 -99 -5
-123 -10 -163 -31 -127 -69 -173 -118 -233 -244 -26 -54 -28 -70 -30 -184 -1
-122 -2 -124 -26 -135 -80 -34 -157 -113 -192 -200 -36 -88 -38 -210 -5 -288
37 -87 90 -149 173 -202 17 -10 82 -29 145 -41 114 -23 121 -23 1130 -23 566
0 1033 4 1055 9 117 26 165 49 248 115 48 38 127 138 127 160 0 6 8 24 17 40
25 46 30 207 8 281 -49 171 -167 283 -350 333 -44 12 -85 27 -92 32 -6 6 -20
32 -29 57 -20 54 -91 133 -149 165 -33 18 -57 22 -135 22 -53 1 -100 4 -107 8
-6 4 -13 19 -16 34 -9 46 -39 127 -54 144 -7 8 -13 20 -13 26 0 26 -103 143
-180 205 -144 115 -388 159 -570 104z"/>
</g>
</svg>
