<?xml version="1.0" standalone="no"?>
<!DOCTYPE svg PUBLIC "-//W3C//DTD SVG 20010904//EN"
 "http://www.w3.org/TR/2001/REC-SVG-20010904/DTD/svg10.dtd">
<svg version="1.0" xmlns="http://www.w3.org/2000/svg"
 width="300.000000pt" height="300.000000pt" viewBox="0 0 300.000000 300.000000"
 preserveAspectRatio="xMidYMid meet">
<metadata>
Created by potrace 1.13, written by Peter Selinger 2001-2015
</metadata>
<g transform="translate(0.000000,300.000000) scale(0.100000,-0.100000)"
fill="#000000" stroke="none">
<path d="M2245 2553 c-20 -5 -117 -51 -164 -78 -34 -19 -138 -123 -170 -170
-34 -51 -68 -121 -76 -160 -4 -16 -13 -47 -21 -68 -8 -20 -14 -72 -14 -115 0
-64 5 -86 28 -132 l28 -55 78 -8 c97 -9 154 -42 206 -119 54 -79 72 -94 119
-102 24 -4 55 -16 69 -26 13 -11 28 -20 33 -20 9 0 100 -92 141 -143 27 -34
28 -34 80 -25 43 8 187 73 210 96 17 17 -13 36 -59 38 -57 2 -163 33 -218 65
-104 59 -198 164 -250 279 -9 19 -25 53 -36 76 -10 22 -19 48 -19 58 0 9 -8
31 -17 49 -14 26 -18 58 -18 162 0 116 3 136 25 190 14 33 37 78 53 100 15 22
35 50 44 63 12 18 13 25 3 37 -13 15 -20 16 -55 8z"/>
<path d="M1170 2131 c-38 -9 -103 -39 -161 -74 -49 -30 -103 -89 -151 -164
l-40 -63 -74 0 c-69 0 -85 -4 -174 -44 -13 -6 -53 -39 -87 -73 -53 -53 -64
-71 -83 -132 -14 -47 -20 -91 -18 -136 3 -63 1 -68 -25 -88 -74 -57 -108 -92
-134 -135 -25 -43 -28 -56 -28 -147 0 -88 3 -105 24 -140 54 -90 126 -143 210
-156 31 -4 79 -12 106 -17 72 -14 1657 2 1712 16 91 25 183 106 231 204 29 60
32 74 32 160 0 86 -3 101 -31 156 -48 98 -142 185 -212 199 -17 3 -51 14 -76
23 -39 14 -48 22 -59 55 -7 24 -32 58 -59 84 -53 50 -103 66 -192 63 -29 -2
-59 2 -66 8 -7 6 -16 33 -20 60 -4 28 -15 56 -26 66 -10 9 -19 26 -19 36 0 26
-147 171 -195 192 -22 9 -53 24 -69 33 -34 19 -255 28 -316 14z"/>
</g>
</svg>
