<?xml version="1.0" standalone="no"?>
<!DOCTYPE svg PUBLIC "-//W3C//DTD SVG 20010904//EN"
 "http://www.w3.org/TR/2001/REC-SVG-20010904/DTD/svg10.dtd">
<svg version="1.0" xmlns="http://www.w3.org/2000/svg"
 width="300.000000pt" height="300.000000pt" viewBox="0 0 300.000000 300.000000"
 preserveAspectRatio="xMidYMid meet">
<metadata>
Created by potrace 1.13, written by Peter Selinger 2001-2015
</metadata>
<g transform="translate(0.000000,300.000000) scale(0.100000,-0.100000)"
fill="#000000" stroke="none">
<path d="M1102 2947 c-20 -21 -22 -34 -22 -143 0 -113 1 -122 23 -142 33 -31
63 -28 82 8 11 21 15 60 15 135 0 75 -4 114 -15 135 -19 37 -53 39 -83 7z"/>
<path d="M506 2708 c-9 -12 -16 -29 -16 -37 0 -7 42 -56 92 -108 86 -87 95
-94 128 -91 35 3 35 3 34 51 0 45 -3 50 -82 127 -65 64 -87 80 -111 80 -20 0
-35 -8 -45 -22z"/>
<path d="M1612 2647 c-66 -66 -84 -91 -89 -121 -7 -44 4 -56 53 -56 26 0 44
14 112 84 89 93 105 125 77 156 -35 38 -64 26 -153 -63z"/>
<path d="M1004 2480 c-102 -38 -175 -102 -237 -212 -15 -26 -27 -59 -27 -74 0
-15 -5 -44 -12 -66 -24 -81 28 -269 79 -289 13 -5 23 -10 23 -13 0 -2 -9 -34
-21 -72 -20 -63 -21 -98 -5 -135 5 -12 -10 -30 -59 -68 -39 -31 -72 -66 -80
-86 -8 -19 -22 -51 -30 -70 -34 -80 -1 -184 83 -261 52 -49 60 -53 155 -73 56
-12 103 -24 107 -27 3 -3 5 -39 6 -80 0 -88 -7 -91 -68 -34 -46 42 -75 50 -85
24 -4 -12 7 -27 35 -51 60 -50 56 -63 -22 -63 -40 0 -68 -5 -75 -13 -19 -24 9
-37 81 -37 48 0 68 -4 68 -12 0 -7 -23 -35 -50 -62 -51 -50 -61 -72 -35 -82 9
-4 38 15 76 50 34 30 65 53 70 50 4 -2 5 -27 2 -53 -8 -70 2 -103 30 -99 20 3
22 10 25 66 4 75 17 80 63 22 37 -46 69 -53 69 -16 0 15 -16 38 -45 65 -66 61
-61 70 38 73 74 3 82 5 82 23 0 18 -8 20 -75 23 -83 3 -106 15 -76 37 52 39
76 67 76 90 0 38 -27 31 -71 -17 -24 -27 -42 -39 -48 -33 -5 6 -11 37 -13 70
l-3 60 50 5 c28 3 170 3 318 2 l267 -4 0 -66 c0 -97 -11 -107 -58 -54 -39 44
-68 54 -79 25 -5 -12 6 -28 35 -54 23 -20 42 -42 42 -47 0 -7 -29 -12 -72 -14
-65 -3 -73 -5 -73 -23 0 -18 8 -20 73 -23 40 -2 72 -7 72 -13 0 -6 -23 -33
-51 -60 -51 -50 -60 -81 -25 -87 11 -3 33 13 61 42 23 25 47 46 54 46 14 0 25
-44 17 -73 -9 -38 4 -68 28 -65 18 3 21 11 24 63 2 33 7 64 12 69 5 5 30 -12
59 -39 48 -45 79 -55 88 -28 2 6 -21 36 -51 66 -31 30 -56 60 -56 66 0 7 25
11 69 11 77 0 101 6 101 25 0 18 -24 25 -90 25 -33 0 -62 5 -66 11 -4 7 13 28
40 51 33 29 46 47 44 62 -5 35 -35 30 -83 -15 -27 -25 -49 -39 -55 -33 -10 10
-16 121 -7 130 8 8 624 7 637 -1 5 -3 7 -34 5 -68 -5 -76 -18 -82 -73 -33 -43
39 -66 45 -76 20 -6 -16 9 -54 22 -54 14 0 62 -51 57 -61 -4 -5 -32 -9 -64 -9
-36 0 -63 -5 -70 -13 -19 -23 9 -37 76 -37 75 0 81 -12 25 -59 -42 -37 -62
-69 -55 -88 9 -24 33 -14 76 32 61 63 77 60 77 -14 0 -61 16 -89 45 -77 11 4
15 20 15 60 0 71 18 78 63 26 39 -46 77 -54 77 -16 0 15 -16 38 -45 65 -66 61
-61 70 38 73 74 3 82 5 82 23 0 18 -8 20 -82 23 -96 3 -104 14 -48 64 49 43
61 66 42 85 -13 13 -19 10 -53 -26 -49 -54 -67 -50 -75 14 -4 28 -10 59 -14
71 -6 19 -1 23 40 33 82 21 156 87 209 186 22 42 26 63 26 128 0 65 -5 88 -29
140 -47 100 -143 179 -233 192 -51 8 -61 16 -73 55 -11 37 -63 93 -104 112
-22 10 -63 17 -108 17 -71 1 -73 2 -79 29 -13 57 -17 69 -51 124 -73 123 -203
204 -342 215 -187 14 -334 -54 -430 -200 l-43 -64 -72 -6 c-95 -7 -174 -44
-229 -109 -23 -26 -45 -48 -49 -48 -17 0 -7 59 15 86 63 81 138 126 220 130
34 1 65 3 69 3 3 1 22 25 42 55 20 30 54 70 76 89 54 46 153 97 189 97 55 0
55 22 -2 76 -64 61 -111 94 -134 94 -10 1 -29 7 -43 15 -38 22 -201 18 -266
-5z"/>
<path d="M276 2119 c-31 -24 -34 -54 -7 -69 11 -5 80 -10 154 -10 118 0 136 2
151 19 14 15 15 23 5 44 -15 33 -32 37 -165 37 -98 0 -115 -3 -138 -21z"/>
<path d="M2010 491 c-5 -11 -10 -42 -10 -70 0 -62 -12 -64 -57 -11 -36 42 -69
52 -80 23 -5 -11 5 -27 31 -49 53 -46 44 -64 -33 -64 -58 0 -74 -9 -64 -37 3
-9 27 -13 73 -13 38 0 71 -4 74 -9 3 -4 -19 -35 -49 -67 -57 -61 -62 -77 -29
-82 13 -2 36 15 68 48 26 27 52 48 57 45 5 -4 9 -33 9 -65 0 -71 6 -90 30 -90
23 0 30 19 30 86 0 66 11 69 65 14 23 -24 48 -40 62 -40 38 0 28 31 -27 85
-27 27 -50 55 -50 62 0 9 20 13 73 13 78 0 103 9 94 34 -5 12 -21 16 -66 16
-102 0 -115 17 -51 64 27 20 40 38 40 53 0 35 -32 29 -81 -17 -24 -22 -47 -40
-51 -40 -4 0 -8 21 -8 46 0 46 -13 84 -30 84 -5 0 -14 -9 -20 -19z"/>
<path d="M1330 480 c-7 -12 -8 -38 -5 -64 5 -28 3 -46 -4 -50 -6 -4 -35 13
-65 38 -29 25 -61 46 -70 46 -28 0 -18 -36 20 -69 50 -45 40 -61 -36 -61 -46
0 -62 -4 -67 -16 -9 -24 15 -34 79 -34 31 0 60 -4 63 -10 3 -5 -14 -32 -39
-58 -49 -53 -60 -92 -26 -92 11 0 40 21 64 46 54 56 82 57 79 4 -3 -65 7 -102
25 -98 13 2 18 17 22 63 6 74 23 80 65 25 19 -24 38 -39 53 -40 36 0 27 33
-23 86 -64 67 -61 74 35 74 79 0 80 0 80 25 0 24 -3 25 -62 25 -93 0 -103 12
-50 59 33 28 43 44 40 62 -5 38 -33 34 -74 -11 -21 -22 -42 -39 -48 -37 -6 2
-13 25 -16 52 -5 53 -22 68 -40 35z"/>
</g>
</svg>
