<?xml version="1.0" standalone="no"?>
<!DOCTYPE svg PUBLIC "-//W3C//DTD SVG 20010904//EN"
 "http://www.w3.org/TR/2001/REC-SVG-20010904/DTD/svg10.dtd">
<svg version="1.0" xmlns="http://www.w3.org/2000/svg"
 width="300.000000pt" height="300.000000pt" viewBox="0 0 300.000000 300.000000"
 preserveAspectRatio="xMidYMid meet">
<metadata>
Created by potrace 1.13, written by Peter Selinger 2001-2015
</metadata>
<g transform="translate(0.000000,300.000000) scale(0.100000,-0.100000)"
fill="#000000" stroke="none">
<path d="M1515 2475 c-115 -37 -174 -73 -248 -150 -71 -74 -134 -182 -123
-211 2 -6 34 -15 70 -19 75 -8 186 -59 261 -121 49 -40 132 -144 146 -184 38
-105 56 -120 142 -120 90 0 185 -70 207 -151 15 -56 39 -78 105 -96 199 -55
319 -260 272 -463 -9 -37 -12 -69 -7 -74 11 -11 41 -11 175 3 182 18 238 28
280 50 50 26 137 112 157 154 25 52 49 167 39 185 -5 9 -12 39 -16 67 -12 87
-77 171 -174 227 l-41 23 0 113 c0 93 -3 118 -20 149 -11 21 -20 43 -20 49 0
35 -154 184 -190 184 -6 0 -28 9 -50 20 -30 15 -59 20 -125 20 -80 0 -88 2
-110 26 -14 15 -25 32 -25 38 0 6 -22 39 -49 73 -51 66 -116 122 -193 167
-118 67 -327 86 -463 41z"/>
<path d="M1025 2041 c-22 -4 -49 -12 -60 -18 -11 -5 -34 -13 -52 -16 -33 -7
-116 -59 -166 -106 -31 -28 -87 -106 -87 -121 0 -5 -12 -18 -27 -29 -19 -16
-34 -20 -58 -15 -46 8 -162 -23 -213 -58 -46 -32 -122 -107 -122 -121 0 -4
-10 -29 -21 -54 -16 -35 -21 -66 -21 -122 1 -97 -3 -108 -41 -128 -104 -53
-163 -191 -137 -319 20 -97 68 -162 149 -204 89 -45 187 -49 1066 -41 l810 7
54 29 c127 69 193 173 195 310 1 72 -2 87 -32 147 -18 37 -47 81 -64 98 -41
42 -133 87 -193 95 -63 9 -72 17 -80 68 -8 51 -48 123 -76 138 -42 22 -133 40
-174 33 -38 -5 -44 -3 -64 21 -11 15 -21 35 -21 44 0 9 -15 49 -34 88 -39 80
-117 165 -191 206 -98 55 -248 85 -340 68z"/>
</g>
</svg>
