<?xml version="1.0" standalone="no"?>
<!DOCTYPE svg PUBLIC "-//W3C//DTD SVG 20010904//EN"
 "http://www.w3.org/TR/2001/REC-SVG-20010904/DTD/svg10.dtd">
<svg version="1.0" xmlns="http://www.w3.org/2000/svg"
 width="300.000000pt" height="300.000000pt" viewBox="0 0 300.000000 300.000000"
 preserveAspectRatio="xMidYMid meet">
<metadata>
Created by potrace 1.13, written by Peter Selinger 2001-2015
</metadata>
<g transform="translate(0.000000,300.000000) scale(0.100000,-0.100000)"
fill="#000000" stroke="none">
<path d="M1482 2752 c-6 -5 -23 -23 -37 -42 -25 -33 -25 -37 -25 -229 l0 -196
35 -37 c18 -21 39 -38 45 -38 6 0 27 17 45 38 l35 37 0 196 c0 192 0 196 -25
229 -23 32 -43 50 -55 50 -3 0 -11 -4 -18 -8z"/>
<path d="M617 2383 c-4 -3 -7 -25 -7 -47 0 -39 6 -46 148 -188 148 -146 187
-173 221 -151 10 7 17 28 19 61 l3 50 -141 141 -141 141 -48 0 c-26 0 -51 -3
-54 -7z"/>
<path d="M2141 2250 l-141 -141 0 -49 c0 -39 4 -52 21 -64 20 -13 25 -13 58 4
20 11 98 82 174 158 l138 139 -3 44 -3 44 -52 3 -51 3 -141 -141z"/>
<path d="M1395 2020 c-148 -30 -264 -105 -345 -226 -167 -250 -108 -579 134
-747 33 -24 91 -55 129 -70 60 -24 80 -27 187 -27 107 0 127 3 187 27 223 89
357 280 357 508 0 209 -111 391 -299 490 -40 22 -223 68 -253 64 -4 0 -47 -9
-97 -19z"/>
<path d="M281 1554 c-38 -31 -39 -53 -5 -85 25 -23 31 -24 232 -29 189 -5 210
-4 240 13 47 27 52 60 12 97 l-32 30 -208 0 -208 0 -31 -26z"/>
<path d="M2236 1549 c-36 -36 -30 -69 16 -96 30 -17 51 -18 240 -13 201 5 207
6 232 29 34 32 33 54 -5 85 l-31 26 -211 -1 -212 -2 -29 -28z"/>
<path d="M910 1007 c-14 -7 -87 -74 -163 -150 l-138 -139 3 -51 3 -52 43 -3
44 -3 149 149 c148 147 149 149 149 193 0 66 -29 84 -90 56z"/>
<path d="M2012 1008 c-7 -7 -12 -32 -12 -57 0 -44 1 -46 149 -193 l149 -149
44 3 43 3 3 51 3 52 -138 138 c-157 158 -205 188 -241 152z"/>
<path d="M1448 756 l-28 -35 0 -195 0 -195 31 -36 c17 -19 39 -35 49 -35 10 0
32 16 49 35 l31 36 0 195 0 195 -27 35 c-19 22 -36 34 -53 34 -17 0 -34 -12
-52 -34z"/>
</g>
</svg>
