<?xml version="1.0" standalone="no"?>
<!DOCTYPE svg PUBLIC "-//W3C//DTD SVG 20010904//EN"
 "http://www.w3.org/TR/2001/REC-SVG-20010904/DTD/svg10.dtd">
<svg version="1.0" xmlns="http://www.w3.org/2000/svg"
 width="300.000000pt" height="300.000000pt" viewBox="0 0 300.000000 300.000000"
 preserveAspectRatio="xMidYMid meet">
<metadata>
Created by potrace 1.13, written by Peter Selinger 2001-2015
</metadata>
<g transform="translate(0.000000,300.000000) scale(0.100000,-0.100000)"
fill="#000000" stroke="none">
<path d="M1305 2936 c-38 -7 -83 -20 -100 -28 -16 -9 -41 -21 -55 -28 -62 -28
-89 -48 -160 -119 -45 -46 -87 -99 -104 -134 -16 -31 -33 -60 -38 -63 -5 -3
-55 -7 -111 -9 -108 -3 -148 -16 -243 -77 -127 -82 -207 -260 -189 -423 l7
-65 -33 -18 c-62 -33 -157 -132 -184 -189 -21 -47 -25 -70 -25 -149 0 -132 23
-185 116 -273 62 -57 83 -69 150 -91 l78 -25 1081 0 1080 0 43 22 c23 13 47
23 52 23 42 0 201 158 221 219 7 20 18 45 25 56 10 13 14 53 14 129 0 95 -4
118 -26 175 -15 36 -34 76 -43 87 -9 12 -23 32 -31 44 -35 51 -136 119 -216
145 -43 13 -91 25 -106 25 -22 0 -29 6 -33 28 -17 78 -80 156 -161 197 -52 27
-69 30 -148 30 l-89 0 -13 30 c-7 17 -13 38 -14 48 0 24 -46 120 -81 171 -52
77 -140 155 -233 207 -108 61 -274 82 -431 55z"/>
<path d="M683 1031 c-86 -69 -106 -95 -100 -133 11 -66 39 -163 49 -169 18
-11 44 1 98 49 75 65 81 84 58 190 -16 76 -28 101 -50 102 -3 0 -28 -17 -55
-39z m53 -98 c5 -29 2 -46 -13 -73 -28 -48 -56 -51 -70 -7 -12 39 -1 75 30 99
33 26 45 22 53 -19z"/>
<path d="M1361 1003 l-73 -67 5 -50 c6 -65 44 -166 63 -166 8 0 47 31 86 69
l72 68 -12 77 c-13 82 -35 136 -55 136 -7 0 -46 -30 -86 -67z m79 -69 c15 -39
12 -51 -20 -86 l-30 -33 -20 24 c-26 30 -25 61 1 95 26 33 57 34 69 0z"/>
<path d="M2093 1027 c-105 -86 -109 -97 -78 -233 2 -11 14 -33 25 -47 20 -25
23 -26 48 -13 15 8 51 40 81 71 53 56 53 57 47 104 -9 65 -42 156 -58 158 -7
2 -36 -16 -65 -40z m57 -97 c10 -25 9 -34 -7 -62 -20 -35 -60 -49 -74 -26 -16
24 -9 71 13 95 29 31 53 29 68 -7z"/>
<path d="M914 492 c-21 -16 -58 -49 -80 -74 l-41 -45 17 -69 c9 -38 20 -81 24
-97 9 -39 44 -35 104 12 58 46 92 87 92 110 -1 21 -43 162 -53 179 -12 17 -19
15 -63 -16z m35 -93 c16 -47 14 -64 -15 -98 -41 -50 -64 -38 -64 34 0 32 40
95 60 95 4 0 13 -14 19 -31z"/>
<path d="M1608 482 c-95 -84 -108 -97 -108 -109 0 -21 50 -187 59 -196 5 -5
22 -2 37 6 40 21 134 122 134 144 0 42 -30 156 -46 174 -23 26 -26 25 -76 -19z
m54 -99 c9 -36 -5 -75 -40 -106 -16 -15 -21 -16 -31 -3 -7 8 -14 29 -17 48 -5
27 -1 41 21 67 33 39 56 37 67 -6z"/>
</g>
</svg>
