<?xml version="1.0" standalone="no"?>
<!DOCTYPE svg PUBLIC "-//W3C//DTD SVG 20010904//EN"
 "http://www.w3.org/TR/2001/REC-SVG-20010904/DTD/svg10.dtd">
<svg version="1.0" xmlns="http://www.w3.org/2000/svg"
 width="300.000000pt" height="300.000000pt" viewBox="0 0 300.000000 300.000000"
 preserveAspectRatio="xMidYMid meet">
<metadata>
Created by potrace 1.13, written by Peter Selinger 2001-2015
</metadata>
<g transform="translate(0.000000,300.000000) scale(0.100000,-0.100000)"
fill="#000000" stroke="none">
<path d="M1349 2826 c-3 -3 -32 -11 -64 -17 -171 -31 -335 -162 -436 -347 -17
-30 -17 -30 -125 -34 -96 -4 -117 -8 -178 -37 -83 -38 -206 -155 -226 -215 -7
-21 -18 -50 -26 -64 -10 -19 -14 -64 -14 -147 l0 -120 -47 -25 c-89 -47 -141
-107 -178 -205 -26 -67 -26 -202 -2 -265 74 -185 213 -257 517 -266 74 -3 563
-1 1085 4 734 7 958 11 985 21 207 77 316 213 325 408 7 143 -48 275 -152 360
-67 55 -119 79 -210 98 -43 9 -81 19 -85 23 -6 7 -30 67 -49 127 -20 62 -90
119 -174 140 -65 17 -128 19 -155 5 -27 -15 -48 -2 -56 33 -3 18 -10 37 -14
42 -5 6 -13 30 -20 55 -7 25 -18 52 -25 60 -7 8 -16 25 -19 37 -10 30 -84 124
-126 159 -19 16 -37 32 -38 37 -2 4 -20 16 -40 27 -21 11 -44 24 -52 29 -43
27 -104 51 -152 61 -60 14 -240 25 -249 16z"/>
<path d="M737 870 c-82 -5 -156 -11 -165 -15 -9 -4 -52 -13 -95 -20 -43 -8
-103 -26 -133 -40 -45 -21 -55 -30 -52 -48 l3 -22 350 0 c287 0 357 -3 390
-15 28 -11 40 -21 40 -35 0 -28 -45 -34 -278 -34 -205 -1 -267 -11 -267 -45 0
-25 71 -58 150 -69 86 -11 300 4 390 28 30 8 69 15 86 15 17 0 66 10 110 21
59 16 128 24 269 30 105 5 224 11 265 14 41 3 171 12 288 21 220 15 255 23
250 59 -3 18 -13 20 -118 25 -117 5 -160 19 -174 56 -9 22 -114 64 -163 64
-24 0 -58 -8 -76 -17 -38 -20 -164 -23 -217 -5 -86 29 -575 48 -853 32z"/>
<path d="M1875 559 c-16 -4 -56 -13 -87 -19 -32 -6 -61 -16 -64 -22 -8 -12 53
-67 73 -68 7 0 39 -9 72 -20 42 -15 105 -24 223 -31 201 -12 165 -12 403 1
258 14 350 31 343 66 -3 14 -22 17 -133 19 -71 1 -138 6 -147 10 -11 4 -18 18
-18 35 0 17 -7 30 -17 34 -23 9 -612 5 -648 -5z"/>
<path d="M1190 393 c-14 -2 -58 -13 -97 -24 -40 -11 -111 -22 -158 -23 -84 -4
-115 -15 -115 -42 0 -22 32 -32 131 -44 212 -26 220 -29 167 -71 -77 -64 13
-83 257 -54 153 18 316 49 355 68 60 30 23 90 -80 131 -118 46 -356 77 -460
59z"/>
</g>
</svg>
