<?xml version="1.0" standalone="no"?>
<!DOCTYPE svg PUBLIC "-//W3C//DTD SVG 20010904//EN"
 "http://www.w3.org/TR/2001/REC-SVG-20010904/DTD/svg10.dtd">
<svg version="1.0" xmlns="http://www.w3.org/2000/svg"
 width="300.000000pt" height="300.000000pt" viewBox="0 0 300.000000 300.000000"
 preserveAspectRatio="xMidYMid meet">
<metadata>
Created by potrace 1.13, written by Peter Selinger 2001-2015
</metadata>
<g transform="translate(0.000000,300.000000) scale(0.100000,-0.100000)"
fill="#000000" stroke="none">
<path d="M1211 2783 c-31 -39 -33 -53 -29 -261 l3 -191 29 -30 c35 -37 55 -39
84 -8 20 21 21 33 23 240 2 200 0 219 -17 240 -39 46 -63 49 -93 10z"/>
<path d="M382 2448 c-7 -7 -12 -29 -12 -49 0 -34 11 -48 133 -172 74 -74 148
-142 165 -151 39 -20 78 -8 93 31 16 43 -8 77 -157 223 -124 121 -136 130
-172 130 -21 0 -43 -5 -50 -12z"/>
<path d="M1893 2318 c-79 -80 -145 -154 -148 -168 -8 -34 9 -77 33 -84 37 -12
89 25 220 157 l133 134 -3 49 -3 49 -45 3 -45 3 -142 -143z"/>
<path d="M1175 2093 c-22 -2 -68 -15 -102 -29 -233 -92 -362 -307 -338 -563 9
-92 54 -211 85 -223 18 -7 23 -2 40 38 11 25 46 73 77 106 76 79 157 118 250
118 68 0 103 12 103 35 0 24 93 131 155 177 67 50 141 84 204 94 23 4 44 11
47 15 9 15 -33 74 -74 105 -123 95 -190 122 -314 128 -51 2 -111 2 -133 -1z"/>
<path d="M1690 1791 c-131 -24 -273 -128 -345 -253 l-27 -48 -62 0 c-126 0
-256 -69 -317 -167 -32 -51 -61 -172 -54 -219 7 -51 -9 -89 -45 -104 -35 -15
-80 -62 -114 -124 -24 -41 -28 -59 -28 -130 -1 -68 3 -89 25 -131 26 -51 78
-106 132 -140 71 -45 301 -50 1440 -36 l440 6 50 30 c73 43 130 101 162 163
26 52 28 64 28 176 0 108 -3 126 -24 166 -46 88 -147 171 -231 189 -72 15 -85
24 -109 74 -25 51 -85 111 -126 127 -16 6 -59 11 -95 10 -36 -1 -70 -2 -76 -1
-6 1 -21 31 -34 69 -48 145 -153 258 -297 320 -58 24 -214 37 -293 23z"/>
<path d="M59 1627 c-40 -33 -42 -53 -11 -87 15 -16 34 -30 42 -31 8 -1 106 -1
217 0 198 1 202 1 230 25 26 23 27 25 13 52 -32 58 -55 64 -270 64 -188 0
-196 -1 -221 -23z"/>
</g>
</svg>
