<?xml version="1.0" standalone="no"?>
<!DOCTYPE svg PUBLIC "-//W3C//DTD SVG 20010904//EN"
 "http://www.w3.org/TR/2001/REC-SVG-20010904/DTD/svg10.dtd">
<svg version="1.0" xmlns="http://www.w3.org/2000/svg"
 width="300.000000pt" height="300.000000pt" viewBox="0 0 300.000000 300.000000"
 preserveAspectRatio="xMidYMid meet">
<metadata>
Created by potrace 1.13, written by Peter Selinger 2001-2015
</metadata>
<g transform="translate(0.000000,300.000000) scale(0.100000,-0.100000)"
fill="#000000" stroke="none">
<path d="M1330 2935 c-59 -12 -121 -33 -160 -56 -8 -5 -31 -18 -50 -28 -71
-40 -184 -162 -212 -231 -24 -57 -38 -63 -151 -65 -96 -2 -106 -4 -172 -39
-113 -59 -189 -145 -233 -259 -18 -48 -22 -79 -22 -168 l0 -110 -28 -12 c-66
-30 -103 -62 -145 -125 -118 -175 -71 -412 103 -525 19 -13 69 -34 110 -47
l75 -25 1078 3 1078 2 61 26 c60 25 166 96 181 120 4 7 13 19 20 26 16 16 62
101 78 143 55 148 4 351 -118 471 -69 67 -174 119 -265 131 -42 6 -47 10 -73
73 -29 67 -72 116 -134 152 -53 31 -61 33 -154 32 -97 0 -98 0 -103 25 -3 14
-14 46 -24 71 -10 25 -22 56 -25 68 -12 41 -66 114 -136 183 -63 63 -89 82
-149 109 -14 7 -43 20 -65 31 -82 38 -242 49 -365 24z"/>
<path d="M1513 1153 c-9 -3 -13 -29 -13 -83 0 -43 -5 -82 -10 -85 -6 -4 -36
19 -67 50 -31 31 -63 55 -72 53 -31 -6 -24 -40 19 -83 59 -60 51 -77 -35 -74
-69 2 -89 -7 -83 -37 3 -16 14 -19 68 -21 36 -1 73 -2 83 -2 29 -1 20 -22 -38
-82 -36 -38 -53 -63 -49 -73 12 -32 48 -16 99 44 68 80 79 76 85 -30 5 -77 7
-85 25 -85 18 0 20 8 23 68 4 89 18 95 82 32 30 -30 54 -46 66 -43 35 6 25 35
-32 92 -70 70 -65 80 39 77 78 -2 104 10 91 43 -5 13 -21 16 -85 16 -76 0 -79
1 -79 23 0 15 17 39 45 66 47 44 49 49 39 75 -10 26 -26 19 -85 -40 -32 -31
-62 -53 -68 -50 -6 4 -11 35 -11 70 0 63 -12 88 -37 79z"/>
<path d="M2292 1148 c-7 -7 -12 -39 -12 -75 0 -86 -18 -93 -76 -30 -45 50 -64
57 -84 32 -11 -13 -5 -23 34 -65 65 -69 62 -78 -26 -82 -70 -3 -73 -4 -73 -28
0 -24 3 -25 60 -27 33 -1 68 -2 78 -2 31 -2 18 -29 -38 -82 -59 -56 -71 -89
-32 -89 15 0 43 19 74 50 70 69 83 67 83 -14 0 -77 6 -96 30 -96 27 0 34 17
32 81 -2 83 13 89 72 28 31 -32 56 -49 72 -49 39 0 29 31 -31 90 -30 30 -55
60 -55 67 0 9 21 13 78 13 85 0 106 8 100 36 -3 17 -14 19 -86 22 -80 3 -83 4
-77 25 4 12 27 41 52 65 47 45 53 75 17 80 -15 2 -35 -12 -68 -49 -61 -68 -74
-62 -78 33 -2 56 -7 73 -18 76 -9 1 -21 -3 -28 -10z"/>
<path d="M717 1143 c-4 -3 -7 -35 -7 -70 0 -86 -17 -93 -76 -30 -46 50 -64 56
-84 32 -11 -13 -5 -23 34 -65 65 -69 62 -78 -26 -82 -62 -3 -73 -6 -76 -22 -5
-26 15 -37 68 -35 99 2 102 -5 30 -76 -51 -50 -62 -81 -34 -92 10 -4 35 13 74
52 76 75 88 71 92 -32 3 -71 5 -78 25 -81 29 -4 47 30 40 79 -3 23 0 45 8 56
13 17 17 15 62 -29 50 -49 79 -60 90 -32 4 10 -13 34 -51 73 -79 80 -78 84 34
81 66 -1 102 18 81 44 -9 11 -35 16 -89 18 -50 2 -77 7 -80 16 -2 7 19 35 47
63 54 53 60 69 36 89 -17 14 -28 8 -80 -49 -39 -42 -55 -35 -55 24 0 24 -3 50
-6 59 -6 16 -45 22 -57 9z"/>
<path d="M1105 558 c-2 -7 -6 -42 -7 -77 -2 -43 -8 -66 -16 -69 -7 -2 -34 17
-58 43 -32 32 -51 45 -67 43 -37 -5 -32 -36 14 -77 53 -47 46 -61 -29 -61 -65
0 -85 -9 -80 -36 3 -16 14 -19 81 -22 96 -4 98 -12 22 -90 -56 -58 -67 -85
-39 -96 11 -4 37 14 79 55 83 79 95 76 95 -24 0 -54 4 -78 15 -87 28 -23 45 5
45 76 0 36 5 66 11 70 7 4 30 -12 55 -40 41 -44 76 -58 89 -36 9 15 -14 51
-63 96 -65 58 -56 74 41 74 54 0 78 4 87 15 25 30 -5 45 -86 45 -49 0 -74 4
-74 12 0 6 23 35 51 65 54 57 58 76 17 81 -19 2 -33 -7 -62 -43 -21 -25 -43
-44 -50 -42 -6 2 -13 32 -16 68 -4 57 -7 64 -28 67 -12 2 -24 -3 -27 -10z"/>
<path d="M1879 553 c0 -10 0 -46 1 -80 1 -37 -3 -64 -10 -68 -7 -5 -29 10 -54
35 -72 74 -107 87 -106 37 1 -13 16 -34 40 -52 53 -40 49 -59 -15 -63 -75 -4
-95 -10 -95 -31 0 -25 19 -31 101 -31 87 0 89 -11 14 -89 -57 -60 -67 -87 -38
-98 12 -5 33 11 75 56 36 38 65 61 73 57 10 -4 15 -28 17 -88 3 -75 5 -83 23
-83 18 0 20 8 23 75 2 41 7 79 13 85 6 6 31 -12 68 -49 40 -40 65 -57 75 -53
28 11 17 39 -39 98 -77 81 -75 89 30 89 72 0 86 3 94 18 16 31 -6 42 -86 42
-89 0 -93 11 -28 72 31 28 45 48 43 62 -5 38 -35 28 -93 -30 -33 -33 -60 -53
-65 -48 -5 5 -10 41 -12 79 -3 64 -5 70 -25 73 -17 2 -23 -2 -24 -15z"/>
</g>
</svg>
